<svg xmlns="http://www.w3.org/2000/svg" viewBox="0 0 750 900" id="0"><linearGradient id="a" x1="381.541" x2="381.541" y1="805.291" y2="77.149" gradientUnits="userSpaceOnUse"><stop offset="0" stop-color="#a0c0f6" class="stopColorc7a0f6 svgShape"></stop><stop offset="1" stop-color="#8cb7fd" class="stopColor8ce6fd svgShape"></stop></linearGradient><path fill="url(#a)" d="M502 103.333c13.856 12.458 28 37.333 20 75.333s-12.062 60.152-3.667 79.667C534.75 296.5 685.881 362.002 685 466c-1 118-121.5 123-152.5 161-22.835 27.992-25 104-96 149-61.867 39.211-184.902 45.516-262.5-21.5-55-47.5-52.333-105.5-49.667-129.833s25.61-98.215-11.535-152.502c-44.132-64.499-39.007-114.087-23.78-166.919C103.5 255 142.871 176.437 241.333 121.333c109-61 224.334-50.666 260.667-18z"></path><path fill="#a0c0f6" d="M439.5 142.251h37v36.997h-37z" class="colorc7a0f6 svgShape"></path><linearGradient id="b" x1="78.082" x2="153.5" y1="329.125" y2="329.125" gradientUnits="userSpaceOnUse"><stop offset="0" stop-color="#b0ceff" class="stopColorb0e1ff svgShape"></stop><stop offset="1" stop-color="#ffffff" class="stopColorffffff svgShape"></stop></linearGradient><path fill="url(#b)" d="M153.5 274.5H99.947c-4.657 11.01-8.226 21.371-10.928 30.746-7.559 26.227-12.625 51.655-10.415 78.504H153.5V274.5z"></path><path fill="#fde7a7" d="M451.85 142.251h12.301v12.3H451.85z" class="colorfde1a7 svgShape"></path><path fill="#ff6457" d="M451.85 166.949h12.301v12.3H451.85z" class="colorff57bc svgShape"></path><path fill="#ffa39b" d="M439.5 154.6h12.301v12.3H439.5z" class="colorff9bbb svgShape"></path><path fill="#1a68e8" d="M464.199 154.6H476.5v12.3h-12.301z" class="color1aa9e8 svgShape"></path><path fill="#0555da" d="M493.667 259.5V206a1 1 0 0 0-1-1H486a1 1 0 0 0-1 1v53.5h8.667z" class="color05c5da svgShape"></path><path fill="#fde7a7" d="M485 259.5V201a6 6 0 0 0-6-6h-6a6 6 0 0 0-6 6v58.5h18z" class="colorfde1a7 svgShape"></path><path fill="#a0c0f6" d="M467 207.333h18V213h-18z" class="colorc7a0f6 svgShape"></path><path fill="#1a68e8" d="M443.128 258.833h18.264l-18.159-69.266a3 3 0 0 0-3.663-2.142l-11.284 2.958a3 3 0 0 0-2.142 3.663l16.984 64.787z" class="color1aa9e8 svgShape"></path><path fill="#ffa39b" d="m443.128 258.833-18.844-71.88a1 1 0 0 0-1.221-.713l-10.641 2.79a1 1 0 0 0-.714 1.221l17.979 68.583h13.441z" class="colorff9bbb svgShape"></path><path fill="#0043b2" d="m430.43 210.403 17.089-4.48 7.143 27.245-17.089 4.48z" class="color0090b2 svgShape"></path><linearGradient id="c" x1="88.981" x2="145.75" y1="339.05" y2="339.05" gradientUnits="userSpaceOnUse"><stop offset="0" stop-color="#0059ec" class="stopColor00e2ec svgShape"></stop><stop offset="1" stop-color="#0043b2" class="stopColor0090b2 svgShape"></stop></linearGradient><path fill="url(#c)" d="M129.5 312c-10.001 3.549-24.75 5-31.5 18.5-7.213 14.426 1.5 21.125 2 29.5.438 7.334-4.784 13.154-11.02 16.5h56.77v-74.9c-3.298 3.552-8.013 7.477-16.25 10.4z"></path><linearGradient id="d" x1="345.019" x2="345.019" y1="756.038" y2="617.51" gradientUnits="userSpaceOnUse"><stop offset="0" stop-color="#4976c0" class="stopColor6b49c0 svgShape"></stop><stop offset="1" stop-color="#5e8cd9" class="stopColor5e7ed9 svgShape"></stop></linearGradient><path fill="url(#d)" d="M392.667 617.667c27.98 1.042 107.583 8.333 102 46-4.88 32.926-49.083 41.803-90.667 46.667-44.396 5.193-58.75 1.416-87.333 22-27.468 19.781-52.167 33.666-94 14.666-31.254-14.195-30.118-50.706-24.417-57.75 15.917-19.667 38.591-17.584 52.417-23.583 11.333-4.917 30.736-28.18 56-38s69.425-10.617 86-10z" opacity=".3"></path><linearGradient id="e" x1="405" x2="411.333" y1="168.454" y2="168.454" gradientUnits="userSpaceOnUse"><stop offset="0" stop-color="#ffffff" class="stopColorffffff svgShape"></stop><stop offset="1" stop-color="#b0ceff" class="stopColorb0e1ff svgShape"></stop></linearGradient><path fill="url(#e)" d="M411.333 259.75V77.232c-2.089-.05-4.202-.073-6.333-.075V259.75h6.333z"></path><path fill="#1a68e8" d="M121.375 303.125c7.25-3.875-6-16.375 6.375-21.375H97a276.264 276.264 0 0 0-4.899 13.557c.979-.422 2.018-.72 3.149-.807 11.375-.875 13.207 15.53 26.125 8.625z" class="color1aa9e8 svgShape"></path><linearGradient id="f" x1="397.917" x2="508.076" y1="106.5" y2="106.5" gradientUnits="userSpaceOnUse"><stop offset="0" stop-color="#ffffff" class="stopColorffffff svgShape"></stop><stop offset="1" stop-color="#b0ceff" class="stopColorb0e1ff svgShape"></stop></linearGradient><path fill="url(#f)" d="M397.917 109.333v.333h110.159a61.268 61.268 0 0 0-6.076-6.333h-98.083a6 6 0 0 0-6 6z"></path><linearGradient id="g" x1="397.917" x2="522.616" y1="178.667" y2="178.667" gradientUnits="userSpaceOnUse"><stop offset="0" stop-color="#ffffff" class="stopColorffffff svgShape"></stop><stop offset="1" stop-color="#b0ceff" class="stopColorb0e1ff svgShape"></stop></linearGradient><path fill="url(#g)" d="M397.917 181.5v.333h123.418l.665-3.166c.225-1.067.426-2.121.616-3.167H403.917a6 6 0 0 0-6 6z"></path><linearGradient id="h" x1="397.917" x2="521.085" y1="260.084" y2="260.084" gradientUnits="userSpaceOnUse"><stop offset="0" stop-color="#ffffff" class="stopColorffffff svgShape"></stop><stop offset="1" stop-color="#b0ceff" class="stopColorb0e1ff svgShape"></stop></linearGradient><path fill="url(#h)" d="M397.917 262.917v.333h123.168c-1.131-1.686-2.068-3.327-2.752-4.917-.202-.47-.391-.943-.579-1.417H403.917a6.002 6.002 0 0 0-6 6.001z"></path><linearGradient id="i" x1="78.081" x2="145.75" y1="329.125" y2="329.125" gradientUnits="userSpaceOnUse"><stop offset="0" stop-color="#6a97e2" class="stopColor8c6ae2 svgShape"></stop><stop offset="1" stop-color="#5592f8" class="stopColor5a55f8 svgShape"></stop></linearGradient><path fill="url(#i)" d="M100 360c-.5-8.375-9.213-15.074-2-29.5 6.75-13.5 21.499-14.951 31.5-18.5 8.237-2.923 12.952-6.848 16.25-10.4v-19.85h-18c-12.375 5 .875 17.5-6.375 21.375-12.918 6.905-14.75-9.5-26.125-8.625-1.132.087-2.171.385-3.149.807a262.85 262.85 0 0 0-3.082 9.938c-6.875 23.855-11.689 47.05-10.841 71.254H88.98c6.236-3.345 11.458-9.165 11.02-16.499z"></path><linearGradient id="j" x1="110.334" x2="131.667" y1="344" y2="344" gradientUnits="userSpaceOnUse"><stop offset="0" stop-color="#c0837e" class="stopColorc07eb0 svgShape"></stop><stop offset="1" stop-color="#ee675c" class="stopColoree5c95 svgShape"></stop></linearGradient><circle cx="121" cy="344" r="10.667" fill="url(#j)"></circle><linearGradient id="k" x1="120.094" x2="204.839" y1="726.326" y2="726.326" gradientUnits="userSpaceOnUse"><stop offset="0" stop-color="#c0837e" class="stopColorc07eb0 svgShape"></stop><stop offset="1" stop-color="#ee675c" class="stopColoree5c95 svgShape"></stop></linearGradient><path fill="url(#k)" d="M128.749 685.397c6.386 22.313 19.495 46.859 45.251 69.103a188.018 188.018 0 0 0 16.578 12.754l14.261-81.856h-76.09z"></path><path fill="#ffa39b" d="M204.934 687.027c0-13.427-18.992-24.307-42.418-24.307-15.466 0-28.994 4.742-36.406 11.827 2.032 10.075 5.334 20.809 10.515 31.729 7.165 3.168 16.14 5.057 25.891 5.057 23.426.001 42.418-10.877 42.418-24.306z" class="colorff9bbb svgShape"></path><linearGradient id="l" x1="142.499" x2="182.005" y1="666.164" y2="705.671" gradientUnits="userSpaceOnUse"><stop offset="0" stop-color="#7394cc" class="stopColor8173cc svgShape"></stop><stop offset="1" stop-color="#106828" class="stopColor271068 svgShape"></stop></linearGradient><path fill="url(#l)" d="M196.833 685.918c0-10.543-15.486-19.084-34.582-19.084-17.273 0-31.586 6.985-34.167 16.119a137.794 137.794 0 0 0 3.857 12.159c5.885 5.896 17.25 9.889 30.31 9.889 19.097 0 34.582-8.54 34.582-19.083z"></path><linearGradient id="m" x1="143.874" x2="164.183" y1="507.61" y2="507.61" gradientUnits="userSpaceOnUse"><stop offset="0" stop-color="#fde7a7" class="stopColorfde1a7 svgShape"></stop><stop offset="1" stop-color="#fbbc05" class="stopColorf9a144 svgShape"></stop></linearGradient><path fill="url(#m)" d="M144.277 499.596c-1.295 2.778.634 5.507 4.273 6.997 4.134 1.692 7.278 1.407 8.682 5.134 1.404 3.728.396 8.013 2.869 7.986 2.474-.026 6.593-10.228 2.027-17.702-4.603-7.539-14.894-8.76-17.851-2.415z"></path><linearGradient id="n" x1="163.409" x2="268.472" y1="651.422" y2="651.422" gradientUnits="userSpaceOnUse"><stop offset="0" stop-color="#0059ec" class="stopColor00e2ec svgShape"></stop><stop offset="1" stop-color="#0043b2" class="stopColor0090b2 svgShape"></stop></linearGradient><path fill="url(#n)" d="M168 648.625c2-5.5 22.375-34.25 58.125-37 32.294-2.484 45.052 12.333 41.875 18.875-2.125 4.375-9.75 3.125-12.875 2.25s-8.608-4.009-12.25-2.125c-3.625 1.875-3.193 6.675-6.875 8.5-6.601 3.272-13.396-2.195-19-4.375-6.75-2.625-18.125-5-26.25 2.5-9.947 9.183-12.027 17.121-15.139 31.061s-4.583 20.835-5.236 21.689c-.813 1.063-2.125 2.25-5.625.875s1-19.25.625-26.5 2.625-15.75 2.625-15.75z"></path><linearGradient id="o" x1="176.249" x2="209.744" y1="667.232" y2="667.232" gradientUnits="userSpaceOnUse"><stop offset="0" stop-color="#fde7a7" class="stopColorfde1a7 svgShape"></stop><stop offset="1" stop-color="#fbbc05" class="stopColorf9a144 svgShape"></stop></linearGradient><path fill="url(#o)" d="M176.25 690.25c.031-1.282 4.5-9.666 5.375-17.625 1.14-10.372 6.315-21.302 11-25.5 5.625-5.041 12.877-7.469 16-3.625 2.708 3.334.042 9.418-3.125 12.5-4.054 3.945-22.643 14.843-19.417 20.834 1.75 3.25 4.943-1.553 6.417-3.833 2.583-4 6.941-7.93 9.667-6.167 2.833 1.833 1.917 7.5-4.25 11.083-6.036 3.507-11.404 6.409-14 9.334-2.455 2.766-.083 2.666-1.417 4.25-1.535 1.823-6.333 2.166-6.25-1.251z"></path><linearGradient id="p" x1="102.84" x2="150.668" y1="622.977" y2="622.977" gradientUnits="userSpaceOnUse"><stop offset="0" stop-color="#5592f8" class="stopColor5a55f8 svgShape"></stop><stop offset=".31" stop-color="#5e95ef" class="stopColor6e5eef svgShape"></stop><stop offset=".729" stop-color="#6796e5" class="stopColor8467e5 svgShape"></stop><stop offset="1" stop-color="#6a97e2" class="stopColor8c6ae2 svgShape"></stop></linearGradient><path fill="url(#p)" d="M150 690.125c1.637-.973.125-9.75-3-14.125s-9-6.5-9-9.625 1.547-5.88-.25-9.75c-1.625-3.5-8-2.125-8.25-7.75s2.61-12.559 4.796-24.804c1.954-10.946.174-14.719-2.671-16.446-3.5-2.125-4.25-7.25-1.625-14.5 1.828-5.047.79-36.817-10.375-37.625-9.5-.688-13.415 16.236-13.5 24.875-.125 12.688 4.771 15.844 2.875 22.375-2.25 7.75-5.333 8.833-6 17.375-.549 7.038-.5 16.625 14.25 34.625 13.958 17.034 23.149 24.347 25.625 27.875 3.042 4.334 4.25 9.209 7.125 7.5z"></path><linearGradient id="q" x1="152.008" x2="201.063" y1="594.572" y2="594.572" gradientUnits="userSpaceOnUse"><stop offset="0" stop-color="#5592f8" class="stopColor5a55f8 svgShape"></stop><stop offset="1" stop-color="#6a97e2" class="stopColor8c6ae2 svgShape"></stop></linearGradient><path fill="url(#q)" d="M162.25 689.5c0-6.25 2.75-26.5-3-37.25s-9-21.75-6.25-33.75 16.25-35.125 15.25-43.125-5.125-21.5 2.25-47.625c5.585-19.783 18.259-33.213 27-27.75 6 3.75 3.25 17.75.25 23s-8.213 14.411-7.213 19.661 4.291 5.821 4.012 12.948c-.548 14.016-20.173 35.516-24.798 54.641-3.838 15.869-5.25 35-1.25 35.75s-.271 38.398-2.136 42.262-4.115 1.238-4.115 1.238z"></path><linearGradient id="r" x1="115.242" x2="199.276" y1="607.674" y2="607.674" gradientUnits="userSpaceOnUse"><stop offset="0" stop-color="#ff6457" class="stopColorff57bd svgShape"></stop><stop offset="1" stop-color="#fe756a" class="stopColorfe6a77 svgShape"></stop></linearGradient><path fill="url(#r)" d="M150.167 522.168c3.75 2.499 4.167 8.499 2.667 12.666s-2.881 6.089-2.5 8.834c.417 2.999 6.167 3.999 8 10.166s-1.167 18.499-4.333 27.333-2.333 15.334.833 15.834 6-3.834 7-9.167.522-28.825 14.667-24.667c5.667 1.666 5.25 11.249 1.667 18-2.763 5.205-12.083 16.583-16.833 32-4.394 14.262-7.851 25.579.833 27.334 7.417 1.499 11.5-6.834 12.5-12.167s4.397-23.679 20.833-20.5c7.75 1.499 2.91 20.319-8.5 30.167-7.78 6.715-17.661 15.077-20.5 26.666-3.083 12.583 1.333 25.5-.5 28s-9 1.001-8.833-.666 2-5.001-1.5-7.834-11.64-6.752-17.167-10.666-5-10-2.167-12.167 6.105.561 7.333 2c2.417 2.833 8 20.042 14.667 15.5 4.243-2.891-2.553-17.051-7.333-23.5-7.167-9.668-23.25-13.334-32.333-25.5-6.403-8.576-2.641-18.194 1.667-19.833 5.917-2.251 11.34 3.108 12.522 8.521 1.583 7.248 4.776 18.768 13.311 12.313 9.917-7.501-5.013-21.627-12.333-29.666-13.583-14.918-20.083-38.335-8.333-42 5.231-1.632 9.583 5.665 10.833 14 1.435 9.564 8.469 40.171 14.667 36.666 3.833-2.168-4.667-9.499-5-15.666s.5-15.001-2.5-22.834-10.878-28.563-6.667-40.833c3.832-11.169 11.663-9.446 13.332-8.334z"></path><linearGradient id="s" x1="214.056" x2="234.705" y1="653.639" y2="653.639" gradientUnits="userSpaceOnUse"><stop offset="0" stop-color="#0059ec" class="stopColor00e2ec svgShape"></stop><stop offset="1" stop-color="#0043b2" class="stopColor0090b2 svgShape"></stop></linearGradient><path fill="url(#s)" d="M232.813 646.313c3.438 1.625 2.25 6.813-4.044 11.419-5.955 4.357-14.495 4.528-14.706 2.24-.21-2.289 4.583-2.427 8.5-6.159 3.917-3.734 5.673-9.664 10.25-7.5z"></path><path fill="#80a6e6" d="m605.982 298.517-4.649.016v117.133h8a6 6 0 0 0 6-6V306.625c0-4.125-2.583-8.108-9.351-8.108z" class="color9180e6 svgShape"></path><linearGradient id="t" x1="516.787" x2="516.787" y1="443.75" y2="413.5" gradientUnits="userSpaceOnUse"><stop offset="0" stop-color="#ffffff" class="stopColorffffff svgShape"></stop><stop offset="1" stop-color="#b6cdf2" class="stopColore9b6f2 svgShape"></stop></linearGradient><path fill="url(#t)" d="M528.5 443.75c13.75-12.249 6.5-28.083 4.5-30.25h-31.626c2 2.167 9.25 18.001-4.5 30.25H528.5z"></path><path fill="#80a6e6" d="m529.73 445.544-2.561-3.287c4.7-4.187 7.225-9.21 7.504-14.928.315-6.458-2.389-11.654-3.144-12.472l2.939-2.713c1.64 1.776 4.555 8.111 4.199 15.38-.327 6.734-3.482 13.162-8.937 18.02z" class="color9180e6 svgShape"></path><path fill="#80a6e6" d="M529.708 445.515s-.771-3.14-1.491-4.273h-54.423a6 6 0 0 0-6 6v.333h61.914v-2.06z" class="color9180e6 svgShape"></path><linearGradient id="u" x1="416.333" x2="611.333" y1="357" y2="357" gradientUnits="userSpaceOnUse"><stop offset="0" stop-color="#ffffff" class="stopColorffffff svgShape"></stop><stop offset="1" stop-color="#d1e0f8" class="stopColorf1d1f8 svgShape"></stop></linearGradient><path fill="url(#u)" d="M416.333 409.667a6 6 0 0 0 6 6h183a6 6 0 0 0 6-6V304.333a6 6 0 0 0-6-6l-183 7.5a6 6 0 0 0-6 6v97.834z"></path><linearGradient id="v" x1="424" x2="600.667" y1="354.667" y2="354.667" gradientUnits="userSpaceOnUse"><stop offset="0" stop-color="#0059ec" class="stopColor00e2ec svgShape"></stop><stop offset="1" stop-color="#0043b2" class="stopColor0090b2 svgShape"></stop></linearGradient><path fill="url(#v)" d="m424 401 176.667-3v-89.667L424 315.833z"></path><linearGradient id="w" x1="483.46" x2="590.462" y1="324.009" y2="324.009" gradientUnits="userSpaceOnUse"><stop offset="0" stop-color="#fde7a7" class="stopColorfde1a7 svgShape"></stop><stop offset="1" stop-color="#fbbc05" class="stopColorf9a144 svgShape"></stop></linearGradient><path fill="url(#w)" d="M590.46 323.089c.072 1.962-1.659 3.619-3.866 3.7l-98.922 3.766c-2.207.082-4.056-1.444-4.128-3.406l-.082-2.221c-.072-1.962 1.659-3.619 3.867-3.701l98.921-3.766c2.208-.081 4.056 1.444 4.128 3.406l.082 2.222z"></path><path fill="#ffa39b" d="M559.75 381.25a2 2 0 0 1-2 2l-87.75 1.5a2 2 0 0 1-2-2v-39.5a2 2 0 0 1 2-2l87.75-1.5a2 2 0 0 1 2 2v39.5z" class="colorff9bbb svgShape"></path><circle cx="439.675" cy="327.071" r="4.667" fill="#fbd66c" class="colorfbbb6c svgShape"></circle><circle cx="455.371" cy="326.721" r="4.667" fill="#4285f4" class="color5265f9 svgShape"></circle><circle cx="471.067" cy="326.371" r="4.667" fill="#ea594d" class="colorea4d81 svgShape"></circle><linearGradient id="x" x1="414.841" x2="548.834" y1="354.594" y2="354.594" gradientUnits="userSpaceOnUse"><stop offset="0" stop-color="#2358af" class="stopColor7523af svgShape"></stop><stop offset=".123" stop-color="#2e60b2" class="stopColor6d2eb2 svgShape"></stop><stop offset=".34" stop-color="#4c75ba" class="stopColor594cba svgShape"></stop><stop offset=".625" stop-color="#386ec7" class="stopColor387cc7 svgShape"></stop><stop offset=".964" stop-color="#0a58d8" class="stopColor0abed8 svgShape"></stop><stop offset="1" stop-color="#0555da" class="stopColor05c5da svgShape"></stop></linearGradient><path fill="url(#x)" d="M548.58 351.453c-13.83-.203-62.58 1.047-79.08-.953s-35.479-9.057-42.25-14.75a14.028 14.028 0 0 1-1.294-1.228c1.211 4.312 2.919 8.228 1.711 14.478-.961 4.973-5.972 12.059-12.826 15.035 2.936 1.358 6.055 2.681 9.159 3.798 12.5 4.5 37.508 6.833 54.167 6.833h70.667l-.254-23.213z"></path><linearGradient id="y" x1="538.731" x2="538.731" y1="374.666" y2="322.682" gradientUnits="userSpaceOnUse"><stop offset="0" stop-color="#033589" class="stopColor170389 svgShape"></stop><stop offset=".422" stop-color="#0e459f" class="stopColor3b0e9f svgShape"></stop><stop offset=".777" stop-color="#154ead" class="stopColor5215ad svgShape"></stop><stop offset="1" stop-color="#1852b2" class="stopColor5a18b2 svgShape"></stop></linearGradient><path fill="url(#y)" d="M548.58 351.453c-4.13-.061-11.385.008-19.953.082 2.123 1.84 7.998 11.173.623 23.132h19.584l-.254-23.214z"></path><linearGradient id="z" x1="397.322" x2="428.08" y1="330.769" y2="330.769" gradientUnits="userSpaceOnUse"><stop offset="0" stop-color="#033589" class="stopColor170389 svgShape"></stop><stop offset=".077" stop-color="#05388c" class="stopColor1c058c svgShape"></stop><stop offset="1" stop-color="#1852b2" class="stopColor5a18b2 svgShape"></stop></linearGradient><path fill="url(#z)" d="M427.667 349c1.208-6.25-.5-10.167-1.711-14.478-2.32-2.508-2.385-4.743-5.081-9.272-2.819-4.737-4.299-8.868-4.542-11.5-.5-5.417 2.82-9.787 2.403-13.287-.397-3.335-9.115-4.624-11.986.287-2.583 4.417-1.263 11.019-.875 13.375.542 3.292.125 4.625.125 4.625s-8.25 10.375-8.625 18.75 1.375 18 1.375 18 7.204 4.426 16.091 8.535c6.854-2.976 11.865-10.062 12.826-15.035z"></path><linearGradient id="A" x1="468.232" x2="510.514" y1="367.333" y2="367.333" gradientUnits="userSpaceOnUse"><stop offset="0" stop-color="#033589" class="stopColor170389 svgShape"></stop><stop offset=".077" stop-color="#05388c" class="stopColor1c058c svgShape"></stop><stop offset="1" stop-color="#1852b2" class="stopColor5a18b2 svgShape"></stop></linearGradient><path fill="url(#A)" d="M510.514 374.667c-3.234-8.57-11.508-14.667-21.21-14.667-9.568 0-17.746 5.932-21.071 14.315 4.342.233 8.501.352 12.238.352h30.043z"></path><path fill="#7caaf7" d="M510.514 375.417a.751.751 0 0 1-.702-.485c-3.201-8.482-11.442-14.182-20.508-14.182-9.042 0-17.039 5.433-20.374 13.842a.751.751 0 0 1-1.395-.553c3.563-8.984 12.108-14.789 21.769-14.789 9.686 0 18.491 6.089 21.912 15.152a.75.75 0 0 1-.702 1.015z" class="colorad7cf7 svgShape"></path><path fill="#7caaf7" d="M494.718 375.417a.75.75 0 0 1-.718-.532c-.682-2.245-2.716-3.753-5.063-3.753s-4.381 1.508-5.063 3.753a.755.755 0 0 1-.936.5.752.752 0 0 1-.5-.936c.875-2.881 3.486-4.817 6.498-4.817s5.623 1.936 6.498 4.817a.752.752 0 0 1-.716.968z" class="colorad7cf7 svgShape"></path><linearGradient id="B" x1="390.493" x2="413.751" y1="337.148" y2="337.148" gradientUnits="userSpaceOnUse"><stop offset="0" stop-color="#033589" class="stopColor170389 svgShape"></stop><stop offset=".077" stop-color="#05388c" class="stopColor1c058c svgShape"></stop><stop offset="1" stop-color="#1852b2" class="stopColor5a18b2 svgShape"></stop></linearGradient><path fill="url(#B)" d="M392.125 332.938c-.5-1-2.813-8 1.938-11.563 4.511-3.383 10.266-3.916 13.438-1.625 2.403 1.736 6.161 4.99 6.25 9.625.063 3.25-2.438 6.125-2.438 6.125s2.313 2.5 2.188 5.625c-.15 3.749-2.625 6-2.625 6s1.313 6.688-2.438 8.125c-3.035 1.163-5.313-.688-7.313-.625-1.754.055-1.658 1.306-1.658 1.306s-4.165.239-5.467-1.931c-1.688-2.813-.375-7-.375-7s-2.986-4.127-3.125-8.5c-.125-3.937 1.625-5.562 1.625-5.562z"></path><linearGradient id="C" x1="399.999" x2="413.751" y1="337" y2="337" gradientUnits="userSpaceOnUse"><stop offset="0" stop-color="#e2ebfb" class="stopColorf6e2fb svgShape"></stop><stop offset="1" stop-color="#ffa39b" class="stopColorff9bbb svgShape"></stop></linearGradient><path fill="url(#C)" d="M408.438 355.25c3.75-1.438 2.438-8.125 2.438-8.125s2.475-2.251 2.625-6c.125-3.125-2.188-5.625-2.188-5.625s2.5-2.875 2.438-6.125c-.089-4.635-3.847-7.889-6.25-9.625-1.284-.927-2.994-1.384-4.871-1.384 1.374 1.641 2.745 4.824 2.059 7.821-.935 4.078-4.438 4.607-4.438 4.607s2.875 2.331 2.625 6.581-2.876 5.958-2.876 5.958 3.501 2.042 3.126 5.667-3.019 5.864-3.019 5.864v.001c.24-.131.565-.227 1.019-.241 1.999-.061 4.276 1.789 7.312.626z"></path><linearGradient id="D" x1="405.192" x2="418.772" y1="306.96" y2="306.96" gradientUnits="userSpaceOnUse"><stop offset="0" stop-color="#e2ebfb" class="stopColorf6e2fb svgShape"></stop><stop offset="1" stop-color="#ffa39b" class="stopColorff9bbb svgShape"></stop></linearGradient><path fill="url(#D)" d="M416.33 313.686c-.468-5.387 2.821-9.736 2.406-13.222-.397-3.335-9.115-4.624-11.986.287-2.563 4.382-1.284 10.908-.886 13.313 1.618 1.25 4.006 2.291 6.219 2.354 1.653.046 3.239-1.493 4.247-2.732z"></path><linearGradient id="E" x1="401" x2="444.231" y1="352.769" y2="352.769" gradientUnits="userSpaceOnUse"><stop offset="0" stop-color="#ffa39b" class="stopColorff9bbb svgShape"></stop><stop offset="1" stop-color="#e2ebfb" class="stopColorf6e2fb svgShape"></stop></linearGradient><path fill="url(#E)" d="M444.106 357.092c.632-5.858-1.266-11.236-3.086-13.978-6.001-2.382-10.948-4.991-13.771-7.364a14.028 14.028 0 0 1-1.294-1.228c1.211 4.312 2.919 8.228 1.711 14.478-.961 4.973-5.972 12.059-12.826 15.035 2.936 1.358 6.055 2.681 9.159 3.798 3.394 1.222 7.713 2.282 12.532 3.181 1.287-1.177 6.785-6.602 7.575-13.922z"></path><path fill="#7caaf7" d="M529.249 375.417a.75.75 0 0 1-.638-1.144c7.188-11.656 1.354-20.586-.476-22.171a.75.75 0 1 1 .983-1.134c2.021 1.752 8.509 11.544.771 24.092a.751.751 0 0 1-.64.357zM411.875 336.344a.748.748 0 0 1-.578-.272c-1.705-2.064-7.341-4.364-9.843-4.66-2.263-.263-5.206.457-9.016 2.208a.751.751 0 0 1-.627-1.363c4.067-1.871 7.274-2.634 9.818-2.334 2.858.337 8.845 2.799 10.823 5.194a.75.75 0 0 1-.577 1.227zM411.219 348.281a.75.75 0 0 1-.704-.491c-.531-1.446-4.823-3.627-8.482-3.875-3.764-.25-7.908 3.835-7.949 3.876a.75.75 0 1 1-1.061-1.06c.188-.188 4.666-4.616 9.111-4.313 3.718.252 8.914 2.473 9.789 4.854a.75.75 0 0 1-.704 1.009zM425.247 369.011a.751.751 0 0 1-.346-1.416c.076-.04 7.733-4.115 9.995-13.398 1.266-5.198.183-10.685-1.453-13.817a.751.751 0 0 1 1.33-.694c1.636 3.133 3.032 8.907 1.58 14.867-2.428 9.967-10.424 14.2-10.763 14.375a.757.757 0 0 1-.343.083z" class="colorad7cf7 svgShape"></path><linearGradient id="F" x1="541.845" x2="569.657" y1="356.131" y2="383.943" gradientUnits="userSpaceOnUse"><stop offset="0" stop-color="#fde7a7" class="stopColorfde1a7 svgShape"></stop><stop offset="1" stop-color="#fbbc05" class="stopColorf9a144 svgShape"></stop></linearGradient><circle cx="555.75" cy="370.036" r="19.666" fill="url(#F)"></circle><linearGradient id="G" x1="540.678" x2="568.406" y1="370.691" y2="370.691" gradientUnits="userSpaceOnUse"><stop offset="0" stop-color="#c9291c" class="stopColorc91c91 svgShape"></stop><stop offset="1" stop-color="#fe756a" class="stopColorfe6a77 svgShape"></stop></linearGradient><path fill="url(#G)" d="M567.32 359.341a2.542 2.542 0 0 0-3.537.635l-9.383 13.487-10.407-8.919a2.009 2.009 0 0 0-2.861 2.796l11.386 13.921a3.366 3.366 0 0 0 5.549-.5l.062-.111 9.964-17.992a2.554 2.554 0 0 0-.773-3.317z"></path><linearGradient id="H" x1="633.334" x2="657.5" y1="422.556" y2="422.556" gradientUnits="userSpaceOnUse"><stop offset="0" stop-color="#ff6457" class="stopColorff57bd svgShape"></stop><stop offset="1" stop-color="#fe756a" class="stopColorfe6a77 svgShape"></stop></linearGradient><path fill="url(#H)" d="M645.417 411.889c-6.673 0-12.083 4.774-12.083 10.667s5.41 10.667 12.083 10.667 12.083-4.774 12.083-10.667-5.41-10.667-12.083-10.667zm-.688 15.334a4.667 4.667 0 1 1 0-9.334 4.667 4.667 0 0 1 0 9.334z"></path><linearGradient id="I" x1="603.667" x2="646.209" y1="424.975" y2="424.975" gradientUnits="userSpaceOnUse"><stop offset="0" stop-color="#c0837e" class="stopColorc07eb0 svgShape"></stop><stop offset="1" stop-color="#ee675c" class="stopColoree5c95 svgShape"></stop></linearGradient><path fill="url(#I)" d="M638.709 446.5h-27.542l-7.5-43.051h42.542z"></path><ellipse cx="624.962" cy="403.449" fill="#ffa39b" rx="21.295" ry="11.384" class="colorff9bbb svgShape"></ellipse><linearGradient id="J" x1="616.33" x2="633.595" y1="393.993" y2="411.258" gradientUnits="userSpaceOnUse"><stop offset="0" stop-color="#994b45" class="stopColor994574 svgShape"></stop><stop offset="1" stop-color="#256f39" class="stopColor43256f svgShape"></stop></linearGradient><ellipse cx="624.962" cy="402.625" fill="url(#J)" rx="15.683" ry="7.208"></ellipse><linearGradient id="K" x1="617.332" x2="652.422" y1="378.595" y2="378.595" gradientUnits="userSpaceOnUse"><stop offset="0" stop-color="#ffffff" class="stopColorffffff svgShape"></stop><stop offset="1" stop-color="#fde7a7" class="stopColorfde1a7 svgShape"></stop></linearGradient><path fill="url(#K)" d="M629.751 401.083c.041-1.5-4.668-2.25-3.584-6.5s6-6.917 13.084-8.583c5.765-1.356 12.939-3.42 13.166-9.417.167-4.417-3.833-5.167-6.333-5.667s-5.417-2-4.667-4.583 3.594-7.261-.156-9.927c-4.747-3.375-18.511-3.073-22.344 6.01s5.166 10.5 7 11 5.78 1.555 4.084 5.167c-1.917 4.083-12.521 9-12.667 15.917-.167 7.875 12.317 10.237 12.417 6.583z"></path><linearGradient id="L" x1="594.431" x2="612.259" y1="362.156" y2="362.156" gradientUnits="userSpaceOnUse"><stop offset="0" stop-color="#ffffff" class="stopColorffffff svgShape"></stop><stop offset="1" stop-color="#fde7a7" class="stopColorfde1a7 svgShape"></stop></linearGradient><path fill="url(#L)" d="M603.334 349.75c3.042.375 4.333 3.458 3.667 7.333-.757 4.402-2.666 6.917-.25 10.083s6.584 4.583 5.25 6.667-12.167.167-16.084-7.667c-3.951-7.9.47-17.272 7.417-16.416z"></path><linearGradient id="M" x1="588.776" x2="603.459" y1="382.181" y2="382.181" gradientUnits="userSpaceOnUse"><stop offset="0" stop-color="#ffffff" class="stopColorffffff svgShape"></stop><stop offset="1" stop-color="#fde7a7" class="stopColorfde1a7 svgShape"></stop></linearGradient><path fill="url(#M)" d="M593.771 377.5c2.094 1.031 3.781 4.625 6 5.063 1.553.306 3.723.5 3.688 2.313-.031 1.594-2.813 2.5-7.406 2.156-4.449-.333-8.43-4.109-6.969-7.625 1-2.407 3.77-2.359 4.687-1.907z"></path><linearGradient id="N" x1="620.919" x2="620.919" y1="477.167" y2="450.334" gradientUnits="userSpaceOnUse"><stop offset="0" stop-color="#ffe9a8" class="stopColorffe2a8 svgShape"></stop><stop offset="1" stop-color="#82b1ff" class="stopColora482ff svgShape"></stop></linearGradient><path fill="url(#N)" d="M683.958 450.333H556.834v11.833c0 8.284 6.716 15 15 15h112.689c.278-3.608.444-7.324.477-11.167a106.788 106.788 0 0 0-1.042-15.666z"></path><circle cx="608" cy="466" r="4.667" fill="#4285f4" class="color5265f9 svgShape"></circle><path fill="#ffa9a2" d="M657.667 477.917a.75.75 0 0 1-.75-.75V454.95a.75.75 0 0 1 1.5 0v22.217a.75.75 0 0 1-.75.75z" class="colorffa2ba svgShape"></path><linearGradient id="O" x1="442.292" x2="712.334" y1="450.225" y2="450.225" gradientUnits="userSpaceOnUse"><stop offset="0" stop-color="#fbbc05" class="stopColorf9a144 svgShape"></stop><stop offset="1" stop-color="#fde7a7" class="stopColorfde1a7 svgShape"></stop></linearGradient><path fill="url(#O)" d="M442.292 445.5v9.451h242.206a108.56 108.56 0 0 0-1.324-9.451H442.292z"></path><linearGradient id="P" x1="325.75" x2="325.75" y1="659.518" y2="568.875" gradientUnits="userSpaceOnUse"><stop offset="0" stop-color="#7394cc" class="stopColor8173cc svgShape"></stop><stop offset="1" stop-color="#106828" class="stopColor271068 svgShape"></stop></linearGradient><path fill="url(#P)" d="M317.875 568.875c.221 10.126-.208 79.124-1.042 88.958 3.179 3.975 8.833-.333 8.833-.333s4.583-18.75 6.667-44.167c1.803-21.989 2.333-43.833 2.333-43.833l-16.791-.625z"></path><path fill="#7ba7ef" d="M321.117 616.492c-1.715 0-3.077-.115-3.655-.277a1 1 0 0 1 .543-1.925c1.5.425 10.604.376 13.765-1.782a1 1 0 0 1 1.128 1.653c-2.617 1.784-8.039 2.331-11.781 2.331z" class="color7b7bef svgShape"></path><linearGradient id="Q" x1="186.523" x2="272.941" y1="465.897" y2="465.897" gradientUnits="userSpaceOnUse"><stop offset="0" stop-color="#994b45" class="stopColor994574 svgShape"></stop><stop offset="1" stop-color="#256f39" class="stopColor43256f svgShape"></stop></linearGradient><path fill="url(#Q)" d="M232 418c-9.53 1.292-41.612 11.86-45.469 33.861-.123.701 1.119 2.447 1.344 3.139 7.75 23.875 42.75 56 56.125 58.25.59.1 1.43.724 2.022.494 9.219-3.569 18.819-21.277 26.728-26.994C276.188 484.265 232 418 232 418z"></path><linearGradient id="R" x1="186.201" x2="248.974" y1="478.357" y2="478.357" gradientUnits="userSpaceOnUse"><stop offset="0" stop-color="#7394cc" class="stopColor8173cc svgShape"></stop><stop offset="1" stop-color="#106828" class="stopColor271068 svgShape"></stop></linearGradient><path fill="url(#R)" d="M190.234 442.361c-2.159 3.482-3.606 7.354-3.984 11.639-1.75 19.834 44.15 62.735 58 60.25 1.563-.28 3.141-1.025 4.724-2.097-28.63-11.191-54.618-52.962-58.74-69.792z"></path><linearGradient id="S" x1="264.489" x2="383.514" y1="549.36" y2="549.36" gradientUnits="userSpaceOnUse"><stop offset="0" stop-color="#994b45" class="stopColor994574 svgShape"></stop><stop offset="1" stop-color="#256f39" class="stopColor43256f svgShape"></stop></linearGradient><path fill="url(#S)" d="M315.25 530.5c9-.018 54.524.823 62.25 5.5 6.333 3.834 7.702 10.192 3.926 16.192s-21.676 17.183-57.676 17.433-59-7.375-59.25-16.125 3.82-21.837 26-24c13.667-1.333 19.75 1.01 24.75 1z"></path><linearGradient id="T" x1="264.499" x2="383.513" y1="558.793" y2="558.793" gradientUnits="userSpaceOnUse"><stop offset="0" stop-color="#7394cc" class="stopColor8173cc svgShape"></stop><stop offset="1" stop-color="#106828" class="stopColor271068 svgShape"></stop></linearGradient><path fill="url(#T)" d="M324.5 573.25c36-.25 53.149-15.058 56.926-21.058 1.656-2.632 2.322-5.333 2.014-7.859-9.698 6.762-31.241 13.657-59.939 14.834-28.188 1.156-51.727-3.09-59.001-5.748l.001.081c.249 8.75 23.999 20 59.999 19.75z"></path><linearGradient id="U" x1="242.606" x2="365.674" y1="683.903" y2="683.903" gradientUnits="userSpaceOnUse"><stop offset="0" stop-color="#106828" class="stopColor271068 svgShape"></stop><stop offset="1" stop-color="#7394cc" class="stopColor8173cc svgShape"></stop></linearGradient><path fill="url(#U)" d="M242.606 708.543c2.727-7.876 19.769-36.543 54.894-49.209 33.123-11.944 59.277-1.882 66.055 3.226s-4.375 14.233-10.067 9.632c-6.113-4.941-22.113-9.816-40.605-4.694-24.299 6.73-46.257 27.003-46.401 42.247-16.982 10.422-23.876-1.202-23.876-1.202z"></path><path fill="#5e8ddb" d="M312.633 664.026c-21.395 5.591-50.187 21.15-54.654 49.476 2.494-.627 5.321-1.806 8.502-3.758.144-15.244 22.102-35.517 46.401-42.247 18.493-5.122 34.493-.247 40.605 4.694 2.209 1.786 5.238 1.499 7.725.188-10.657-11.377-27.826-13.775-48.579-8.353z" class="color665edb svgShape"></path><linearGradient id="V" x1="241.667" x2="267" y1="713.333" y2="713.333" gradientUnits="userSpaceOnUse"><stop offset="0" stop-color="#994b45" class="stopColor994574 svgShape"></stop><stop offset="1" stop-color="#256f39" class="stopColor43256f svgShape"></stop></linearGradient><circle cx="254.333" cy="713.333" r="12.667" fill="url(#V)"></circle><linearGradient id="W" x1="353.465" x2="373.646" y1="672.649" y2="672.649" gradientUnits="userSpaceOnUse"><stop offset="0" stop-color="#994b45" class="stopColor994574 svgShape"></stop><stop offset="1" stop-color="#256f39" class="stopColor43256f svgShape"></stop></linearGradient><circle cx="363.555" cy="672.649" r="10.09" fill="url(#W)"></circle><path fill="#7ba7ef" d="M254.333 717.25c-2.16 0-3.917-1.757-3.917-3.917s1.757-3.917 3.917-3.917 3.917 1.757 3.917 3.917-1.757 3.917-3.917 3.917zm0-6.334c-1.333 0-2.417 1.084-2.417 2.417s1.084 2.417 2.417 2.417 2.417-1.084 2.417-2.417-1.084-2.417-2.417-2.417zM363.555 676.566c-2.16 0-3.917-1.757-3.917-3.917s1.757-3.917 3.917-3.917 3.917 1.757 3.917 3.917-1.757 3.917-3.917 3.917zm0-6.334c-1.333 0-2.417 1.084-2.417 2.417s1.084 2.417 2.417 2.417 2.417-1.084 2.417-2.417-1.084-2.417-2.417-2.417z" class="color7b7bef svgShape"></path><linearGradient id="X" x1="278.125" x2="278.125" y1="387.303" y2="333.707" gradientUnits="userSpaceOnUse"><stop offset="0" stop-color="#e88f87" class="stopColore8878e svgShape"></stop><stop offset=".219" stop-color="#e58c85" class="stopColore58589 svgShape"></stop><stop offset=".469" stop-color="#de837b" class="stopColorde7f7b svgShape"></stop><stop offset=".735" stop-color="#d26d65" class="stopColord27565 svgShape"></stop><stop offset="1" stop-color="#ea4335" class="stopColorc16846 svgShape"></stop></linearGradient><path fill="url(#X)" d="M263.609 333.708c.474 6.376-1.276 32.959-10.526 45.959 3.279 7.396 20.936 8.014 26.917 7.5 13.583-1.167 23.167-8.667 23.167-8.667s-5.167-27.333-11-36.5c-4.512-1.435-10.583-2.083-16.25-3.917s-12.308-4.375-12.308-4.375z"></path><linearGradient id="Y" x1="240.33" x2="306.957" y1="311.932" y2="311.932" gradientUnits="userSpaceOnUse"><stop offset="0" stop-color="#e88f87" class="stopColore8878e svgShape"></stop><stop offset="1" stop-color="#f4dfa3" class="stopColorf4bea3 svgShape"></stop></linearGradient><path fill="url(#Y)" d="M300.167 302.333c-7.175-12.065-17.798-21.042-19.5-22.833 0 0-30.875-5.84-39.333 17.667-4.917 13.667 9.833 28.833 9.833 28.833s1.349.513 3.4 1.584a6.899 6.899 0 0 0-2.456 5.282 6.917 6.917 0 0 0 6.917 6.917 6.912 6.912 0 0 0 6.429-4.377c.117.114.236.22.352.336 5.024 5.009 24.237 15.142 35.548 4.761 9.81-9.003 4.98-27.793-1.19-38.17z"></path><linearGradient id="Z" x1="217.472" x2="299.776" y1="292.058" y2="292.058" gradientUnits="userSpaceOnUse"><stop offset="0" stop-color="#994b45" class="stopColor994574 svgShape"></stop><stop offset="1" stop-color="#256f39" class="stopColor43256f svgShape"></stop></linearGradient><path fill="url(#Z)" d="M297.667 251.25c-3.752-2.502-11.75 2-16 6.333s-10.084 7.583-11.667 5.833 2.47-3.586.583-6c-2.083-2.667-13.583.667-18.833 9.667s-9.416 21.083-13.833 22.417-3.167-5.583-7.75-5.75-10.417 5.75-11.833 10.417c-2.105 6.936-.083 11.917 3.167 12.167 5.85.45 9.25-8.583 13.333-6.5 2.79 1.423.917 7.416-.583 12.583s.417 12.083 6.417 16.833c4.488 3.553 8.781 4.296 11.481 4.333a7.102 7.102 0 0 1-.037-.718c0-3.669 2.858-6.662 6.469-6.895.438-1.753.542-3.588-.08-5.221-2-5.25-16.05-16.707-13.417-22.667 1.583-3.583 5.833-3.667 13.5-3.917s12.384.404 13.167-2.583c.917-3.5-5.967-2.217-5.5-4.083.75-3 13.385-.614 24.167-12 10.415-10.999 10.999-21.749 7.249-24.249z"></path><path fill="#ffffff" d="M283.25 325.667s5.167-.417 8-.75 9.917-.833 9.917-.833-2.5 7.833-8.25 8.5-9.667-6.917-9.667-6.917z" class="colorffffff svgShape"></path><path fill="#34a853" d="M269.238 313.856a.5.5 0 0 1-.436-.255c-1.25-2.22-.969-4.833.698-6.501 1.498-1.498 3.817-1.887 5.91-.989a.5.5 0 1 1-.393.919c-1.715-.736-3.603-.43-4.81.777-1.347 1.347-1.561 3.479-.534 5.304a.5.5 0 0 1-.435.745zM288.691 298.874a.5.5 0 0 1-.484-.378c-.414-1.641-.067-3.167.951-4.185 1.198-1.198 3.124-1.456 5.024-.672a.5.5 0 0 1-.381.925c-1.521-.627-3.029-.452-3.937.455-.763.763-1.014 1.942-.688 3.234a.5.5 0 0 1-.485.621z" class="color212f66 svgShape"></path><linearGradient id="aa" x1="264.259" x2="264.259" y1="231.356" y2="177.392" gradientUnits="userSpaceOnUse"><stop offset="0" stop-color="#fde7a7" class="stopColorfde1a7 svgShape"></stop><stop offset="1" stop-color="#ffffff" class="stopColorffffff svgShape"></stop></linearGradient><path fill="url(#aa)" d="M268.583 180.869c.208.794.29 1.306.373 1.856.083.536.131 1.051.18 1.562.083 1.021.125 2.022.126 3.023-.003 2-.09 3.986-.183 5.969-.194 3.965-.565 7.922-.817 11.871-.322 3.952-.475 7.893-.519 11.827-.015.984-.009 1.967.025 2.948.013.982.066 1.962.124 2.942.055.979.144 1.958.25 2.931.111.954.239 1.989.448 2.829a2.197 2.197 0 1 1-4.327.445l.002-.035c.048-1.119.093-2.047.102-3.055a67.72 67.72 0 0 0-.024-2.957 69.002 69.002 0 0 0-.135-2.947 60.422 60.422 0 0 0-.228-2.941c-.38-3.918-.865-7.83-1.535-11.73l-1.938-11.681c-.299-1.941-.603-3.879-.856-5.801a56.743 56.743 0 0 1-.29-2.856c-.03-.469-.066-.933-.081-1.374-.02-.426-.036-.893-.009-1.065l.2-1.292a4.66 4.66 0 0 1 5.319-3.892 4.668 4.668 0 0 1 3.793 3.423z"></path><linearGradient id="ab" x1="237.734" x2="237.734" y1="235.786" y2="199.847" gradientUnits="userSpaceOnUse"><stop offset="0" stop-color="#fde7a7" class="stopColorfde1a7 svgShape"></stop><stop offset="1" stop-color="#ffffff" class="stopColorffffff svgShape"></stop></linearGradient><path fill="url(#ab)" d="M235.42 203.056c.155.733.576 2.021.987 3.228l1.35 3.786c.926 2.568 1.928 5.151 2.752 7.831l1.32 3.996a55.745 55.745 0 0 0 1.545 3.896 50.418 50.418 0 0 0 1.794 3.747c.325.603.644 1.209.996 1.773.35.552.722 1.131 1.066 1.504l.014.015a1.76 1.76 0 1 1-2.619 2.353 20.825 20.825 0 0 1-1.457-1.891c-.427-.612-.847-1.209-1.246-1.817l-2.365-3.627a198.06 198.06 0 0 0-2.365-3.613 148.645 148.645 0 0 1-2.409-3.605c-1.602-2.417-2.927-4.978-4.153-7.628a49.397 49.397 0 0 1-1.684-4.117 27.934 27.934 0 0 1-.699-2.244 17.108 17.108 0 0 1-.289-1.252 11.057 11.057 0 0 1-.118-.71l-.057-.468-.017-.266a3.857 3.857 0 0 1 7.622-1.039l.032.148z"></path><linearGradient id="ac" x1="288.283" x2="288.283" y1="228.27" y2="188.207" gradientUnits="userSpaceOnUse"><stop offset="0" stop-color="#fde7a7" class="stopColorfde1a7 svgShape"></stop><stop offset="1" stop-color="#ffffff" class="stopColorffffff svgShape"></stop></linearGradient><path fill="url(#ac)" d="m296.263 192.592-.799 4.436a155.793 155.793 0 0 1-.938 4.51c-.692 3.006-1.575 5.997-2.787 8.946a28.783 28.783 0 0 1-1.021 2.188c-.182.361-.389.72-.588 1.074l-.564.953c-.745 1.273-1.514 2.53-2.211 3.81-.705 1.274-1.369 2.562-1.899 3.852-.528 1.267-.934 2.621-.875 3.607a2.173 2.173 0 1 1-4.321-.167l.015-.103c.282-1.973.956-3.424 1.554-4.873.626-1.428 1.267-2.792 1.893-4.155l1.863-4.059.464-1.008c.132-.306.267-.602.387-.915.247-.618.469-1.255.666-1.908.815-2.604 1.228-5.404 1.507-8.221.291-2.84.315-5.648.315-8.652a3.702 3.702 0 1 1 7.348.637l-.009.048z"></path><linearGradient id="ad" x1="301.752" x2="301.752" y1="231.556" y2="213.894" gradientUnits="userSpaceOnUse"><stop offset="0" stop-color="#fde7a7" class="stopColorfde1a7 svgShape"></stop><stop offset="1" stop-color="#ffffff" class="stopColorffffff svgShape"></stop></linearGradient><path fill="url(#ad)" d="M308.612 217.291c-.86 1.816-2.036 3.019-3.157 4.152-1.135 1.125-2.313 2.121-3.446 3.126-1.131 1.004-2.263 1.979-3.283 3.001a17.385 17.385 0 0 0-1.396 1.563c-.402.525-.724 1.088-.8 1.534l-.019.111a.935.935 0 0 1-1.856-.111c-.054-1.088.307-1.95.659-2.726.368-.776.805-1.469 1.258-2.133.909-1.325 1.882-2.542 2.854-3.726.972-1.182 1.92-2.355 2.802-3.5.867-1.146 1.689-2.291 2.095-3.248a2.357 2.357 0 1 1 4.342 1.838l-.036.082-.017.037z"></path><linearGradient id="ae" x1="253.338" x2="301.838" y1="306.499" y2="306.499" gradientUnits="userSpaceOnUse"><stop offset="0" stop-color="#5592f8" class="stopColor5a55f8 svgShape"></stop><stop offset="1" stop-color="#6a97e2" class="stopColor8c6ae2 svgShape"></stop></linearGradient><path fill="url(#ae)" d="M299.448 289.623c-2.284-3.232-5.799-5.239-9.174-5.239-1.619 0-3.136.467-4.388 1.352-3.559 2.515-4.234 7.835-1.832 12.477-2.141.377-3.974 2.056-5.119 3.539-2.012-2.182-4.883-3.559-8.078-3.559-6.066 0-11 4.935-11 11 0 2.493.843 4.787 2.246 6.633-2.316 2.435-6.848 8.424-8.764 12.682l.241.108a6.922 6.922 0 0 1 3.182-2.278c2.132-3.548 5.105-7.325 6.695-9.031a10.947 10.947 0 0 0 7.402 2.886c6.066 0 11-4.935 11-11 0-2.122-.614-4.098-1.658-5.779.915-1.306 2.959-3.518 5.096-3.248 2.285 3.02 5.651 4.892 8.899 4.892 1.619 0 3.136-.468 4.388-1.353 3.975-2.811 4.363-9.128.864-14.082zm-28.591 28.569c-4.963 0-9-4.038-9-9s4.038-9 9-9 9 4.038 9 9-4.037 9-9 9zm26.571-16.122c-.913.645-2.031.986-3.234.986-2.736 0-5.625-1.684-7.54-4.394-2.864-4.053-2.69-9.12.386-11.293.925-.654 2.013-.985 3.233-.985 2.736 0 5.625 1.684 7.54 4.394 2.865 4.052 2.691 9.118-.385 11.292z"></path><path fill="#ff6457" d="m234.306 301.63-.068-.001a2 2 0 0 1-1.932-2.066c.136-4.068 1.326-9.85 3.011-12.097a2 2 0 0 1 3.2 2.4c-.894 1.191-2.08 5.842-2.213 9.83a2 2 0 0 1-1.998 1.934z" class="colorff57bc svgShape"></path><linearGradient id="af" x1="282.934" x2="300.516" y1="308.142" y2="308.142" gradientUnits="userSpaceOnUse"><stop offset="0" stop-color="#ff6457" class="stopColorff57bd svgShape"></stop><stop offset="1" stop-color="#fe756a" class="stopColorfe6a77 svgShape"></stop></linearGradient><path fill="url(#af)" d="M285.294 300.159c4.444 1.681 14.637 8.18 15.206 11.591.417 2.5-7.333 5.083-7.917 4.25s-2.667-5.333-5.333-9.167c-1.984-2.853-4.061-4.875-4.316-6.074.406-.218 1.504-.78 2.36-.6z"></path><linearGradient id="ag" x1="181.403" x2="214.477" y1="231.352" y2="231.352" gradientUnits="userSpaceOnUse"><stop offset="0" stop-color="#e88f87" class="stopColore8878e svgShape"></stop><stop offset="1" stop-color="#f4dfa3" class="stopColorf4bea3 svgShape"></stop></linearGradient><path fill="url(#ag)" d="M203.865 275.185c-3.725-25.108-1.436-40.617-1.115-46.06.5-8.5 5.875-15.583 8.25-21.875 1.955-5.177 4.708-8.5 2.875-9.75-2.711-1.848-7.625 4.583-7.625 4.583s.792-16.75-2.875-16.583c-3.125.142-1.125 9.875-2.875 10.375s-4.708-9.125-7.375-8.75c-1.444.203-1.667 3.708-1.667 3.708s-.775-.651-1.583.042c-1.167 1-.144 6.899-1.125 9.25-.412-.582-.725-1.005-1.333-.875-4.688 1-3.874 25.296-4.583 30.75-1.137 8.735-2.021 26.05-.939 46.867 4.44.499 12.698.787 21.97-1.682z"></path><linearGradient id="ah" x1="327.646" x2="361.386" y1="225.122" y2="225.122" gradientUnits="userSpaceOnUse"><stop offset="0" stop-color="#e88f87" class="stopColore8878e svgShape"></stop><stop offset="1" stop-color="#f4dfa3" class="stopColorf4bea3 svgShape"></stop></linearGradient><path fill="url(#ah)" d="M361.386 260.515c-.953-9.167-1.74-16.057-1.886-18.349-.5-7.833-.833-14.333-1.667-21.667s-3.667-15.333-4.167-18 .431-6.298-.854-9.313c-1.083-2.542-2.396-1.521-2.396-1.521s-.088-3.623-1.667-3.5c-1.875.146-4.375 11.646-5.667 11.833-.742.108.167-13.125-2.083-13.375-1.615-.18-2.813 2.063-4.375 9.313-1.348 6.256.633 17.313-.375 17.313-1.125 0-1.75-5-2.875-8.25s-2.438-6.438-4.125-6.25c-1.678.187-1.962 4.144-1.212 9.769.596 4.467 7.712 26.981 10.712 37.231 1.169 3.995 1.919 10.348 2.297 17.557 4.156.59 11.652.732 20.34-2.791z"></path><path fill="#c65950" d="M188.608 199.48c.428.593.727 1.306.867 2.049.07.372.108.752.11 1.135-.001.39-.021.751-.109 1.175a.503.503 0 1 1-.958-.291l.005-.012c.108-.263.197-.612.252-.934.057-.33.083-.667.079-1.006a4.733 4.733 0 0 0-.463-1.992.125.125 0 0 1 .058-.167.13.13 0 0 1 .159.043zM191.622 189.667c-.143 1.323.034 2.655.268 3.967.12.657.263 1.311.414 1.966.149.659.317 1.301.443 2.005a.5.5 0 1 1-.991.134l-.001-.009c-.056-.633-.168-1.312-.259-1.98a45.203 45.203 0 0 1-.244-2.027c-.12-1.354-.182-2.744.085-4.096a.145.145 0 0 1 .168-.116.143.143 0 0 1 .117.156zM201.333 193.129c.025 1.169-.041 2.337-.127 3.502a56.96 56.96 0 0 1-.162 1.747c-.067.587-.128 1.155-.248 1.771a.501.501 0 1 1-.969-.246l.004-.012c.161-.51.293-1.088.42-1.645.126-.563.243-1.129.353-1.696.215-1.136.409-2.278.514-3.43a.107.107 0 0 1 .118-.098.11.11 0 0 1 .097.107zM207.737 200.283c-.884.922-1.447 2.128-2.059 3.269l-1.769 3.498c-.604 1.163-1.232 2.32-1.966 3.432-.752 1.09-1.543 2.219-2.842 2.965a.5.5 0 1 1-.498-.868l.026-.014.019-.009c1.023-.505 1.88-1.522 2.638-2.533.76-1.032 1.438-2.141 2.095-3.263l1.942-3.401c.676-1.116 1.293-2.297 2.272-3.224a.103.103 0 0 1 .145.145l-.003.003zM335.643 211.62c.265.827.814 1.515 1.427 2.145.618.627 1.305 1.194 2.011 1.746.705.554 1.432 1.087 2.142 1.674.354.296.706.602 1.036.962.316.366.671.768.78 1.426a.5.5 0 1 1-.988.164l-.006-.052v-.008c-.015-.249-.227-.607-.487-.92a9.521 9.521 0 0 0-.9-.925c-.65-.598-1.35-1.171-2.033-1.769-.685-.596-1.362-1.215-1.976-1.907-.604-.687-1.174-1.483-1.417-2.401l-.004-.014a.218.218 0 0 1 .154-.265.217.217 0 0 1 .261.144zM350.712 191.045c.09.823.081 1.631.084 2.441-.003.81-.021 1.618-.045 2.426-.055 1.62-.115 3.223-.254 4.86a.5.5 0 0 1-.998-.085l.004-.03.001-.013c.235-1.565.402-3.179.559-4.775.075-.8.145-1.602.2-2.402.049-.799.108-1.606.072-2.391a.19.19 0 0 1 .178-.2c.1-.005.186.071.199.169z" class="colorc66c50 svgShape"></path><linearGradient id="ai" x1="181.894" x2="365.377" y1="393.247" y2="393.247" gradientUnits="userSpaceOnUse"><stop offset="0" stop-color="#fe756a" class="stopColorfe6a77 svgShape"></stop><stop offset="1" stop-color="#c9291c" class="stopColorc91c91 svgShape"></stop></linearGradient><path fill="url(#ai)" d="M332 462.5c-2.25-18.75-.838-44.293 6.75-64 5.583-14.5 22.083-40.333 25.75-64.25 2.465-16.079-.81-51.569-3.114-73.735-8.688 3.522-16.185 3.38-20.339 2.792.592 11.288.271 24.679-.797 34.443-1.75 16-12.25 46.5-25.5 63.5s-25.5 18.5-35.75 18.5c-15.125 0-43.375-2.75-61.75-53.25-7.312-20.094-11.293-37.213-13.385-51.315-9.272 2.469-17.53 2.182-21.972 1.682.899 17.311 3.157 37.042 7.772 56.3 5.828 24.316 16.5 49.333 26.5 68.167 9.024 16.995 13.728 46.255 23.333 70.667 6.115 15.54 14.345 38.547 29.387 53.979 1.535-22.149 30.45-44.314 63.115-63.48z"></path><path fill="#ffa9a2" d="M187.521 308.456c-.962 0-1.891-.054-2.779-.165a.75.75 0 1 1 .184-1.488c6.675.829 15.817-1.707 23.862-6.613a.75.75 0 1 1 .781 1.281c-7.263 4.43-15.436 6.985-22.048 6.985zM193.74 348.664a.75.75 0 0 1-.119-1.49c4.483-.729 20.759-10.094 25.153-15.651a.751.751 0 0 1 1.177.931c-4.66 5.892-21.307 15.423-26.089 16.201a.856.856 0 0 1-.122.009zM204.72 378.181a.75.75 0 0 1-.11-1.492c4.732-.707 24.331-15.158 27.257-20.889a.75.75 0 1 1 1.336.682c-3.139 6.149-23.288 20.932-28.371 21.691a.856.856 0 0 1-.112.008zM216.166 402.083a.75.75 0 0 1-.162-1.482c4.236-.941 30.154-18.737 34.703-27.681a.749.749 0 1 1 1.337.679c-4.729 9.297-30.953 27.407-35.714 28.465a.667.667 0 0 1-.164.019zM351.47 298.688c-4.605 0-9.016-.487-11.333-1.167a.75.75 0 0 1 .423-1.439c4.732 1.391 18.342 1.853 23.589-.879a.75.75 0 0 1 .692 1.33c-3.009 1.566-8.308 2.155-13.371 2.155zM359.45 330.188c-9.84 0-22.656-4.289-25.949-5.949a.75.75 0 0 1 .674-1.34c3.65 1.84 19.294 7.003 28.957 5.537a.75.75 0 0 1 .225 1.483c-1.222.186-2.536.269-3.907.269zM356.292 361.83h-.012c-16.408-.26-29.34-11.985-32.195-16.227a.75.75 0 0 1 1.244-.838c2.738 4.068 15.165 15.314 30.974 15.564a.75.75 0 0 1-.011 1.501zM340.647 394.756a.867.867 0 0 1-.072-.003c-14.265-1.367-34.478-17.5-36.675-22.823a.75.75 0 1 1 1.386-.572c2.047 4.96 21.925 20.608 35.431 21.902a.75.75 0 0 1-.07 1.496zM258.125 406.785c-20.54 0-37.082-1.072-40.907-2.208a.75.75 0 0 1 .427-1.439c8.697 2.581 83.802 4.811 120.906-5.362a.745.745 0 0 1 .921.525.749.749 0 0 1-.525.921c-21.039 5.77-54.269 7.563-80.822 7.563zM229.787 442.403a.75.75 0 0 1-.358-1.41c14.077-7.636 53.812-21.713 103.438-20.319.414.011.74.356.729.771s-.349.77-.771.729c-49.309-1.373-88.727 12.569-102.682 20.139a.747.747 0 0 1-.356.09zM237.898 468.515a.75.75 0 0 1-.452-1.35c23.02-17.32 54.523-26.431 93.634-27.079a.744.744 0 0 1 .762.738.75.75 0 0 1-.738.762c-38.787.643-69.995 9.652-92.757 26.778a.738.738 0 0 1-.449.151zM247.966 493.599a.751.751 0 0 1-.566-1.243c2.816-3.24 46.328-32.489 83.941-36.62.412-.062.782.252.828.663a.75.75 0 0 1-.664.827c-35.433 3.892-79.493 32.11-82.973 36.114a.741.741 0 0 1-.566.259z" class="colorffa2ba svgShape"></path><linearGradient id="aj" x1="356.891" x2="365.376" y1="332.885" y2="332.885" gradientUnits="userSpaceOnUse"><stop offset="0" stop-color="#fbbc05" class="stopColorf9a144 svgShape"></stop><stop offset="1" stop-color="#fde7a7" class="stopColorfde1a7 svgShape"></stop></linearGradient><path fill="url(#aj)" d="M365.369 317.165c-14.292 10.328-6.706 27.825-4.385 31.439 1.552-4.792 2.789-9.61 3.517-14.354.68-4.442.921-10.37.868-17.085z"></path><linearGradient id="ak" x1="189.333" x2="199.321" y1="333.912" y2="332.151" gradientUnits="userSpaceOnUse"><stop offset="0" stop-color="#fde7a7" class="stopColorfde1a7 svgShape"></stop><stop offset="1" stop-color="#fbbc05" class="stopColorf9a144 svgShape"></stop></linearGradient><path fill="url(#ak)" d="M186.807 319.583c.836 4.529 1.777 9.07 2.859 13.584 1.175 4.905 2.556 9.836 4.08 14.742 12.081-10.577 3.591-27.397-6.939-28.326z"></path><linearGradient id="al" x1="327.926" x2="458.313" y1="553.633" y2="553.633" gradientUnits="userSpaceOnUse"><stop offset="0" stop-color="#0059ec" class="stopColor00e2ec svgShape"></stop><stop offset=".3" stop-color="#2068df" class="stopColor20b5df svgShape"></stop><stop offset="1" stop-color="#4e7ac2" class="stopColor6a4ec2 svgShape"></stop></linearGradient><path fill="url(#al)" d="M389.418 496.496S321 527.666 328.5 532.333s27.587 10.789 43.833 16.5c18.366 6.456 35.167 14.5 35.167 14.5s-11.875 11.542-23.333 25.167a124.152 124.152 0 0 0-2.881 3.573c3.921 5.629 13.8 15.316 28.291 18.697 17.426-11.969 46.92-33.28 48.673-51.021 2.397-24.26-63.442-60.87-68.832-63.253z"></path><linearGradient id="am" x1="444.222" x2="458.313" y1="557.779" y2="557.779" gradientUnits="userSpaceOnUse"><stop offset="0" stop-color="#1852b2" class="stopColor5a18b2 svgShape"></stop><stop offset="1" stop-color="#507ec9" class="stopColor7a50c9 svgShape"></stop></linearGradient><path fill="url(#am)" d="M449.393 540.119c-4.239 5.82-9.82 21.794 1.556 35.319 4.063-5.32 6.804-10.648 7.302-15.688.594-6.021-3.016-12.801-8.858-19.631z"></path><linearGradient id="an" x1="357.421" x2="409.577" y1="627.291" y2="627.291" gradientUnits="userSpaceOnUse"><stop offset="0" stop-color="#e88f87" class="stopColore8878e svgShape"></stop><stop offset=".219" stop-color="#e58c85" class="stopColore58589 svgShape"></stop><stop offset=".469" stop-color="#de837b" class="stopColorde7f7b svgShape"></stop><stop offset=".735" stop-color="#d26d65" class="stopColord27565 svgShape"></stop><stop offset="1" stop-color="#ea4335" class="stopColorc16846 svgShape"></stop></linearGradient><path fill="url(#an)" d="M381.286 592.073c-9.961 12.794-23.078 33.67-23.684 35.791-.667 2.333.565 9.469 2.731 14.803s14.167 21.708 16.333 19.666c2.922-2.753-.5-23.166.667-27S387.75 626 400.5 617c2.229-1.574 5.384-3.692 9.077-6.229-14.491-3.381-24.37-13.069-28.291-18.698z"></path><path fill="#225ab6" d="M415.27 607.563a.688.688 0 0 1-.127-.011c-9.972-1.701-27.23-15.192-30.611-19.748a.751.751 0 0 1 1.205-.895c2.936 3.957 19.936 17.506 29.658 19.164a.75.75 0 0 1-.125 1.49z" class="color6022b6 svgShape"></path><path fill="#225ab6" d="M396.315 597.841a.75.75 0 0 1-.493-1.315c.242-.212 24.261-21.35 24.261-34.692 0-17.259-61.287-37.668-76.457-41.795a.75.75 0 1 1 .393-1.447c.776.211 77.563 22.053 77.563 43.242 0 14.021-23.763 34.938-24.774 35.821a.74.74 0 0 1-.493.186z" class="color6022b6 svgShape"></path><linearGradient id="ao" x1="357.421" x2="362.188" y1="628.993" y2="628.993" gradientUnits="userSpaceOnUse"><stop offset="0" stop-color="#f4dfa3" class="stopColorf4bea3 svgShape"></stop><stop offset="1" stop-color="#e88f87" class="stopColore8878e svgShape"></stop></linearGradient><path fill="url(#ao)" d="M361.025 621.743c-1.964 3.216-3.244 5.493-3.423 6.121-.416 1.457-.092 4.785.737 8.379 5.175-3.835 4.093-10.734 2.686-14.5z"></path><linearGradient id="ap" x1="360.75" x2="380.335" y1="654.459" y2="654.459" gradientUnits="userSpaceOnUse"><stop offset="0" stop-color="#fe756a" class="stopColorfe6a77 svgShape"></stop><stop offset="1" stop-color="#c9291c" class="stopColorc91c91 svgShape"></stop></linearGradient><path fill="url(#ap)" d="M360.75 645.5c1.5-.75 16.464-3.42 19.083-.583 1.065 1.153.5 18.916-2.333 20.25-2.473 1.164-9.982-7.205-11.794-9.776s-4.956-9.891-4.956-9.891z"></path><linearGradient id="aq" x1="352.5" x2="378.001" y1="646.563" y2="646.563" gradientUnits="userSpaceOnUse"><stop offset="0" stop-color="#994b45" class="stopColor994574 svgShape"></stop><stop offset="1" stop-color="#256f39" class="stopColor43256f svgShape"></stop></linearGradient><path fill="url(#aq)" d="M375.998 666.625c-.33 0-.665-.081-.974-.254-18.3-10.224-22.469-37.33-22.506-37.601a2 2 0 0 1 3.962-.541c.035.251 4.158 25.523 20.494 34.649a2 2 0 0 1-.976 3.747z"></path><linearGradient id="ar" x1="268.886" x2="489.839" y1="489.549" y2="489.549" gradientUnits="userSpaceOnUse"><stop offset="0" stop-color="#0555da" class="stopColor05c5da svgShape"></stop><stop offset=".036" stop-color="#0a58d8" class="stopColor0abed8 svgShape"></stop><stop offset=".375" stop-color="#386ec7" class="stopColor387cc7 svgShape"></stop><stop offset=".66" stop-color="#4c75ba" class="stopColor594cba svgShape"></stop><stop offset=".877" stop-color="#2e60b2" class="stopColor6d2eb2 svgShape"></stop><stop offset="1" stop-color="#2358af" class="stopColor7523af svgShape"></stop></linearGradient><path fill="url(#ar)" d="M489.839 476.453c-18.756-18.72-45.097-39.132-73.589-39.703-37.416-.75-74.917 21.75-84.25 25.75-32.665 19.166-61.58 41.331-63.114 63.479 9.814 10.069 22.526 16.915 39.447 16.354C363.667 540.5 381 492 420.166 491.667c15.621-.133 31.14 5.734 44.859 12.774 5.388-4.089 17.619-18.02 24.814-27.988z"></path><path fill="#0059ec" d="M307.122 525.019c-19.759 0-32.043-12.489-33.503-14.054a.75.75 0 1 1 1.097-1.024c1.56 1.671 15.897 16.242 38.685 13.149 11.787-1.598 23.404-9.476 36.856-18.597 18.453-12.512 39.368-26.693 66.545-27.91 33.368-1.498 54.772 14.324 54.984 14.484a.75.75 0 1 1-.903 1.197c-.209-.156-21.205-15.645-54.016-14.184-26.754 1.198-47.482 15.253-65.77 27.654-13.608 9.227-25.361 17.195-37.497 18.841a47.803 47.803 0 0 1-6.478.444z" class="color00e2ec svgShape"></path><path fill="#0059ec" d="M293.554 522.945a.75.75 0 0 1-.409-1.379c1.991-1.295 3.259-4.563 3.667-9.452.763-9.137-1.748-21.056-3.638-22.794a.75.75 0 1 1 1.016-1.104c2.378 2.187 4.896 14.699 4.118 24.022-.455 5.444-1.917 9.006-4.344 10.585a.75.75 0 0 1-.41.122z" class="color00e2ec svgShape"></path><linearGradient id="as" x1="465.025" x2="545.244" y1="502.107" y2="502.107" gradientUnits="userSpaceOnUse"><stop offset="0" stop-color="#e88f87" class="stopColore8878e svgShape"></stop><stop offset=".219" stop-color="#e58c85" class="stopColore58589 svgShape"></stop><stop offset=".469" stop-color="#de837b" class="stopColorde7f7b svgShape"></stop><stop offset=".735" stop-color="#d26d65" class="stopColord27565 svgShape"></stop><stop offset="1" stop-color="#ea4335" class="stopColorc16846 svgShape"></stop></linearGradient><path fill="url(#as)" d="M545.167 508.167c-1.666-2-22.042 1.583-27.417-.917-2.046-.951-12.378-15.294-27.911-30.797-7.195 9.968-19.426 23.898-24.813 27.988 20.074 10.301 36.297 23.111 43.354 23.315 12.745.369 38.453-17.589 36.787-19.589z"></path><path fill="#0059ec" d="M460.358 502.882a.75.75 0 0 1-.37-1.403c3.368-1.903 20.478-18.729 24.517-29.782a.749.749 0 0 1 .962-.446.749.749 0 0 1 .446.962c-4.232 11.585-21.611 28.552-25.187 30.573a.752.752 0 0 1-.368.096z" class="color00e2ec svgShape"></path><linearGradient id="at" x1="417.973" x2="417.973" y1="451.335" y2="436.732" gradientUnits="userSpaceOnUse"><stop offset="0" stop-color="#033589" class="stopColor170389 svgShape"></stop><stop offset=".077" stop-color="#05388c" class="stopColor1c058c svgShape"></stop><stop offset="1" stop-color="#1852b2" class="stopColor5a18b2 svgShape"></stop></linearGradient><path fill="url(#at)" d="M420 451.333c9.569-.113 16.41-6.065 19.783-9.823-7.59-2.848-15.476-4.599-23.533-4.76-6.749-.135-13.499.494-20.088 1.627 3.584 5.568 12.059 13.096 23.838 12.956z"></path><linearGradient id="au" x1="508.687" x2="509.806" y1="521.493" y2="527.84" gradientUnits="userSpaceOnUse"><stop offset="0" stop-color="#e88f87" class="stopColore8878e svgShape"></stop><stop offset="1" stop-color="#f4dfa3" class="stopColorf4bea3 svgShape"></stop></linearGradient><path fill="url(#au)" d="M510.166 521.5c-4.323-.19-7.36 2.103-8.574 4.044 2.763 1.349 5.053 2.163 6.787 2.213 2.558.074 5.641-.599 8.917-1.724-1.027-1.883-3.126-4.356-7.13-4.533z"></path><linearGradient id="av" x1="531.592" x2="555.384" y1="512.129" y2="512.129" gradientUnits="userSpaceOnUse"><stop offset="0" stop-color="#fe756a" class="stopColorfe6a77 svgShape"></stop><stop offset="1" stop-color="#c9291c" class="stopColorc91c91 svgShape"></stop></linearGradient><path fill="url(#av)" d="M534.75 502.375c-2.148.68-6.1 12.697.45 21.849 1.86-1.79 8.682-8.637 10.701-10.964s8.974-11.885 9.468-12.714-11.931-.921-20.619 1.829z"></path><linearGradient id="aw" x1="517.75" x2="556.5" y1="519.813" y2="519.813" gradientUnits="userSpaceOnUse"><stop offset="0" stop-color="#256f39" class="stopColor43256f svgShape"></stop><stop offset="1" stop-color="#994b45" class="stopColor994574 svgShape"></stop></linearGradient><path fill="url(#aw)" d="M519.752 539.75a1.999 1.999 0 0 1-1.164-3.628c1.918-1.37 26.343-21.563 34.177-35.241a2 2 0 1 1 3.47 1.988c-8.31 14.509-33.259 35.034-35.323 36.509a1.99 1.99 0 0 1-1.16.372z"></path><linearGradient id="ax" x1="237.327" x2="305.718" y1="612.882" y2="544.491" gradientUnits="userSpaceOnUse"><stop offset="0" stop-color="#ffffff" class="stopColorffffff svgShape"></stop><stop offset="1" stop-color="#fde7a7" class="stopColorfde1a7 svgShape"></stop></linearGradient><path fill="url(#ax)" d="m350.34 591.877.083-.028a1.338 1.338 0 0 0-.962-2.495c-3.089 1.181-6.456 2.266-10.915 3.518-3.33.907-6.886 1.73-11.197 2.594-7.027 1.411-14.481 2.415-22.788 3.067a239.4 239.4 0 0 1-17.431.648c-9.708 0-19.246-.63-28.348-1.871-8.215-1.126-15.446-2.664-22.106-4.705-3.947-1.214-7.296-2.518-10.239-3.987-1.695-.849-3.223-1.743-4.542-2.659a26.95 26.95 0 0 1-1.022-.746l-.458-.362-.511-.422a38.883 38.883 0 0 1-1.964-1.752c-2.681-2.565-4.642-5.272-5.828-8.047a17.307 17.307 0 0 1-1.29-9.113c.372-2.957 1.556-6.043 3.424-8.923a23.845 23.845 0 0 1 3.039-3.818c.95-.97 2.348-2.143 3.325-2.571l.099-.045a4.228 4.228 0 0 0 2.198-2.407 4.23 4.23 0 0 0-.149-3.256 4.28 4.28 0 0 0-3.859-2.452c-.625 0-1.232.136-1.804.404-2.662 1.248-4.315 2.771-5.912 4.353a32.158 32.158 0 0 0-4.117 5.202c-2.514 3.973-4.033 8.199-4.511 12.558a24.666 24.666 0 0 0 .198 6.88 25.378 25.378 0 0 0 2.087 6.518c1.749 3.685 4.428 7.152 7.962 10.307a45.68 45.68 0 0 0 2.422 2.01l.63.473.693.493c.441.302.887.592 1.346.877 1.679 1.038 3.505 1.984 5.58 2.892 3.413 1.484 7.063 2.694 11.485 3.81 6.783 1.679 14.192 2.777 23.315 3.456 4.942.365 10.091.542 15.739.542 2.438 0 4.922-.032 7.594-.1 7.244-.163 14.832-.687 23.198-1.599 17.07-1.889 31.966-4.911 45.536-9.244z"></path><linearGradient id="ay" x1="364.432" x2="403.499" y1="649.507" y2="688.574" gradientUnits="userSpaceOnUse"><stop offset="0" stop-color="#fde7a7" class="stopColorfde1a7 svgShape"></stop><stop offset="1" stop-color="#ffffff" class="stopColorffffff svgShape"></stop></linearGradient><path fill="url(#ay)" d="M396.367 684.959c6.149-2.021 11.539-4.487 16.479-7.543 6.027-3.782 10.485-8.086 13.622-13.151 3.707-5.974 5.35-13.43 4.395-19.945a25.304 25.304 0 0 0-1.365-5.142 24.47 24.47 0 0 0-2.522-4.951c-1.191-1.759-2.505-3.207-4.008-4.416a16.599 16.599 0 0 0-2.719-1.778 14.45 14.45 0 0 0-2.43-.997l-.265-.081-.114-.029-.249-.062a5.647 5.647 0 0 0-1.346-.163c-2.393 0-4.54 1.501-5.344 3.734a5.658 5.658 0 0 0 3.405 7.231l.258.094c.129.045.294.104.449.248.081.046.159.094.239.148.271.162.524.365.791.58l.012.009.044.036a10.987 10.987 0 0 1 1.788 1.973c1.086 1.455 2.047 3.463 2.767 5.786.794 2.456 1.178 4.756 1.138 6.824-.027.618-.061 1.2-.169 1.794-.047.272-.1.555-.161.834l-.09.382-.007.028-.008.027-.147.497a22.26 22.26 0 0 1-1.33 3.414c-2.017 4.192-5.546 8.313-10.206 11.913-3.921 3.064-8.684 5.763-14.557 8.245-9.783 4.031-21.004 6.672-33.36 7.853-4.774.445-9.643.672-14.474.672-6.701 0-13.479-.434-20.147-1.287a.968.968 0 0 0-1.087.844.966.966 0 0 0 .844 1.08c8.886 1.085 17.516 1.636 25.648 1.636 3.169 0 6.335-.083 9.411-.247 6.361-.341 12.098-.957 17.538-1.883 6.098-1.009 11.909-2.424 17.277-4.207z"></path><linearGradient id="az" x1="417.35" x2="448.341" y1="670.779" y2="670.779" gradientUnits="userSpaceOnUse"><stop offset="0" stop-color="#ffffff" class="stopColorffffff svgShape"></stop><stop offset="1" stop-color="#fde7a7" class="stopColorfde1a7 svgShape"></stop></linearGradient><path fill="url(#az)" d="M447.629 652.283a.491.491 0 0 0-.487.451 27.871 27.871 0 0 1-1.052 5.656c-.492 1.647-1.185 3.356-2.119 5.224-1.557 3.069-3.772 6.102-6.59 9.016-2.637 2.697-5.538 4.989-8.627 6.815-1.558.916-3.172 1.685-4.686 2.38-.847.378-1.668.72-2.29.975l-1.118.434-.466.186a3.453 3.453 0 0 1-.383.143l-.333.112a3.16 3.16 0 0 0-2.128 3.051 3.114 3.114 0 0 0 3.129 3.051l.085-.002.373-.01c.103 0 .201-.005.323-.022l.008-.001.057-.007c.302-.036.588-.07.843-.115a16.45 16.45 0 0 0 1.645-.356 19.913 19.913 0 0 0 3.102-1.121c1.737-.774 3.425-1.81 5.477-3.362a43.928 43.928 0 0 0 8.809-8.962c2.511-3.41 4.432-7.116 5.712-11.014 1.318-4.076 1.736-8.261 1.206-12.096a.494.494 0 0 0-.447-.422l-.021-.497-.021-.005v.498z"></path><linearGradient id="aA" x1="538.98" x2="587.074" y1="545.67" y2="545.67" gradientUnits="userSpaceOnUse"><stop offset="0" stop-color="#ffffff" class="stopColorffffff svgShape"></stop><stop offset="1" stop-color="#fde7a7" class="stopColorfde1a7 svgShape"></stop></linearGradient><path fill="url(#aA)" d="M583.376 516.53a3.706 3.706 0 0 0-3.695 3.666c-.019 2.302-.434 4.978-1.27 8.181a57.759 57.759 0 0 1-2.829 8.172c-2.361 5.463-5.324 10.565-8.805 15.169a81.156 81.156 0 0 1-12.207 12.895c-4.91 4.191-10.031 7.402-15.219 9.54-.016.006-.041.019-.063.03a.599.599 0 0 0-.232.818.602.602 0 0 0 .818.231c5.663-3.168 10.745-6.065 15.6-9.448a83.39 83.39 0 0 0 13.732-12.037c4.371-4.799 8.05-9.819 10.93-14.919 1.692-3.016 3.042-5.786 4.123-8.467 1.421-3.571 2.267-6.465 2.74-9.377l.032-.191a3.701 3.701 0 0 0-3.624-4.262l-.016-.498-.017-.002v.499z"></path><linearGradient id="aB" x1="164.085" x2="198.582" y1="440.94" y2="440.94" gradientUnits="userSpaceOnUse"><stop offset="0" stop-color="#ffffff" class="stopColorffffff svgShape"></stop><stop offset=".453" stop-color="#fef2d0" class="stopColorfeefd0 svgShape"></stop><stop offset=".802" stop-color="#fdeab2" class="stopColorfde5b2 svgShape"></stop><stop offset="1" stop-color="#fde7a7" class="stopColorfde1a7 svgShape"></stop></linearGradient><path fill="url(#aB)" d="m198.056 422.94.055-.033a1.027 1.027 0 0 0-.555-1.889c-.196 0-.388.057-.554.164-2.5 1.611-5.105 3.14-7.625 4.619-.875.514-1.752 1.028-2.628 1.548-4.044 2.362-7.246 4.452-10.084 6.583-3.271 2.524-6.437 5.105-9.099 8.817-1.52 2.169-2.52 4.311-3.049 6.539-.712 2.852-.381 5.931-.121 7.514l.057.354c.051.299.138.604.256.9a4.444 4.444 0 0 0 4.146 2.808 4.47 4.47 0 0 0 4.143-6.124c-.584-1.459-.947-2.661-.953-4.14-.013-1.351.369-2.898 1.104-4.471 1.283-2.754 3.466-5.713 6.489-8.795 2.402-2.466 5.226-5.003 8.63-7.753 3.403-2.695 6.602-4.865 9.788-6.641z"></path><linearGradient id="aC" x1="601.161" x2="609.906" y1="522.619" y2="522.619" gradientUnits="userSpaceOnUse"><stop offset="0" stop-color="#ffffff" class="stopColorffffff svgShape"></stop><stop offset="1" stop-color="#fde7a7" class="stopColorfde1a7 svgShape"></stop></linearGradient><path fill="url(#aC)" d="M608.679 512.469c-.363-.438-.766-.643-1.266-.643-.116 0-.239.012-.365.034-2.032.356-2.146 2.509-1.915 6.997.092 1.792.188 3.646-.015 5.383-.343 2.947-1.787 5.224-2.842 6.885-.574.905-1.287 2.028-1.078 2.283l.007-.001c.012 0 .04.004.083.004 1.768 0 6.965-4.587 8.104-10.598.889-4.686.609-8.747-.713-10.344z"></path><linearGradient id="aD" x1="474.094" x2="485.634" y1="559.988" y2="559.988" gradientUnits="userSpaceOnUse"><stop offset="0" stop-color="#ffffff" class="stopColorffffff svgShape"></stop><stop offset="1" stop-color="#fde7a7" class="stopColorfde1a7 svgShape"></stop></linearGradient><path fill="url(#aD)" d="M484.352 546.361c-.656-.91-1.518-1.353-2.635-1.353-.188 0-.385.014-.586.039-3.113.396-2.952 3.956-2.434 9.73.22 2.441.447 4.965.263 7.284-.31 3.896-2.114 6.984-3.433 9.239-1.11 1.899-1.766 3.088-1.26 3.558a.382.382 0 0 0 .29.109c1.862 0 6.532-5.564 9.328-13.951 2.152-6.453 2.331-12.069.467-14.655z"></path><linearGradient id="aE" x1="161.335" x2="188.67" y1="411.462" y2="411.462" gradientUnits="userSpaceOnUse"><stop offset="0" stop-color="#ffffff" class="stopColorffffff svgShape"></stop><stop offset="1" stop-color="#fde7a7" class="stopColorfde1a7 svgShape"></stop></linearGradient><path fill="url(#aE)" d="M188.67 407.407c.002-.852-.234-1.521-.703-1.992-.625-.626-1.701-.958-3.113-.958-3.302 0-7.898 1.774-12.295 4.747-5.592 3.78-9.437 7.239-11.224 9.263l.212-.126c2.391-1.421 6.003-3.569 10.446-4.746 2.53-.67 5.123-1.04 7.409-1.365 5.912-.843 9.258-1.482 9.268-4.823z"></path><linearGradient id="aF" x1="233.831" x2="263.692" y1="567.656" y2="567.656" gradientUnits="userSpaceOnUse"><stop offset="0" stop-color="#ffffff" class="stopColorffffff svgShape"></stop><stop offset="1" stop-color="#fde7a7" class="stopColorfde1a7 svgShape"></stop></linearGradient><path fill="url(#aF)" d="M263.309 575.454c-.818-1.063-2.918-1.794-5.619-1.956-.42-.025-.923-.037-1.491-.052-3.827-.095-10.233-.253-14.859-4.32-5.795-5.095-6.324-10.515-6.578-13.119-.016-.161-.033-.336-.051-.5a1.942 1.942 0 0 0-.307.462c-1.29 2.575-.484 10.032 3.272 15.058 3.083 4.124 9.34 8.422 16.367 8.725.843.036 1.591.054 2.287.054 5.952 0 7.036-1.396 7.311-2.761.126-.627.021-1.133-.332-1.591z"></path></svg>