<?xml version="1.0" encoding="UTF-8"?>
<svg xmlns="http://www.w3.org/2000/svg" xmlns:xlink="http://www.w3.org/1999/xlink" width="600px" height="600px" viewBox="0 0 600 600" version="1.1">
<defs>
<linearGradient id="linear0" gradientUnits="userSpaceOnUse" x1="0" y1="0" x2="1" y2="0" gradientTransform="matrix(90.397121,38.847863,-42.15287,83.309511,80,254.039062)">
<stop offset="0" style="stop-color:rgb(5.098039%,48.627451%,91.372549%);stop-opacity:1;"/>
<stop offset="1" style="stop-color:rgb(8.235294%,81.176471%,94.509804%);stop-opacity:1;"/>
</linearGradient>
</defs>
<g id="surface1">
<path style=" stroke:none;fill-rule:nonzero;fill:rgb(100%,100%,100%);fill-opacity:1;" d="M 0 0 L 200 0 L 200 200 L 0 200 Z M 0 0 "/>
<path style=" stroke:none;fill-rule:nonzero;fill:rgb(100%,100%,100%);fill-opacity:1;" d="M 221.691406 330.640625 C 217.277344 330.640625 213.691406 329.648438 210.941406 327.671875 C 210.394531 327.242188 209.953125 326.683594 209.605469 325.996094 C 209.261719 325.277344 209.089844 324.53125 209.089844 323.757812 C 209.089844 322.496094 209.535156 321.394531 210.425781 320.449219 C 211.34375 319.53125 212.445312 319.070312 213.734375 319.070312 C 214.453125 319.070312 215.125 319.230469 215.757812 319.542969 C 216.359375 319.832031 216.890625 320.234375 217.347656 320.75 C 217.980469 321.523438 218.679688 322.082031 219.453125 322.425781 C 220.257812 322.769531 221.203125 322.941406 222.292969 322.941406 C 224.441406 322.941406 226.089844 322.339844 227.238281 321.136719 C 228.386719 319.933594 228.957031 318.140625 228.957031 315.761719 L 228.957031 312.148438 C 227.867188 313.523438 226.609375 314.585938 225.175781 315.332031 C 223.710938 316.105469 221.804688 316.492188 219.453125 316.492188 C 214.839844 316.492188 211.398438 314.914062 209.132812 311.761719 C 206.898438 308.609375 205.78125 304.664062 205.78125 299.933594 C 205.78125 296.550781 206.398438 293.601562 207.628906 291.078125 C 208.890625 288.554688 210.640625 286.605469 212.875 285.230469 C 215.140625 283.882812 217.734375 283.207031 220.660156 283.207031 C 224.757812 283.207031 227.78125 284.65625 229.734375 287.550781 C 229.933594 286.375 230.535156 285.386719 231.539062 284.582031 C 232.511719 283.78125 233.617188 283.378906 234.851562 283.378906 C 236.3125 283.378906 237.542969 283.882812 238.546875 284.882812 C 239.550781 285.886719 240.054688 287.09375 240.054688 288.496094 L 240.054688 312.835938 C 240.054688 318.683594 238.589844 323.113281 235.667969 326.125 C 232.769531 329.132812 228.113281 330.640625 221.691406 330.640625 Z M 223.109375 309.136719 C 225.089844 309.136719 226.59375 308.308594 227.625 306.644531 C 228.628906 304.980469 229.128906 302.730469 229.128906 299.890625 C 229.128906 297.027344 228.628906 294.761719 227.625 293.097656 C 226.59375 291.433594 225.089844 290.605469 223.109375 290.605469 C 221.160156 290.605469 219.65625 291.449219 218.59375 293.140625 C 217.5625 294.832031 217.046875 297.082031 217.046875 299.890625 C 217.046875 302.703125 217.5625 304.9375 218.59375 306.601562 C 219.65625 308.292969 221.160156 309.136719 223.109375 309.136719 Z M 250.074219 279.207031 C 248.8125 279.207031 247.707031 278.75 246.761719 277.832031 C 245.84375 276.914062 245.386719 275.8125 245.386719 274.519531 C 245.386719 273.230469 245.84375 272.128906 246.761719 271.210938 C 247.707031 270.292969 248.8125 269.832031 250.074219 269.832031 L 252.867188 269.832031 C 254.15625 269.832031 255.261719 270.292969 256.179688 271.210938 C 257.097656 272.128906 257.554688 273.230469 257.554688 274.519531 C 257.554688 275.8125 257.097656 276.914062 256.179688 277.832031 C 255.261719 278.75 254.15625 279.207031 252.867188 279.207031 Z M 251.492188 317.136719 C 249.945312 317.136719 248.625 316.59375 247.535156 315.503906 C 246.417969 314.382812 245.859375 313.066406 245.859375 311.546875 L 245.859375 288.96875 C 245.859375 287.449219 246.417969 286.132812 247.535156 285.011719 C 248.625 283.925781 249.945312 283.378906 251.492188 283.378906 C 253.011719 283.378906 254.316406 283.925781 255.40625 285.011719 C 256.523438 286.132812 257.082031 287.449219 257.082031 288.96875 L 257.082031 311.546875 C 257.082031 313.066406 256.523438 314.382812 255.40625 315.503906 C 254.316406 316.59375 253.011719 317.136719 251.492188 317.136719 Z M 275.660156 317.394531 C 271.816406 317.394531 269.09375 316.449219 267.488281 314.554688 C 265.882812 312.636719 265.09375 309.667969 265.125 305.65625 L 265.210938 291.25 L 263.53125 291.25 C 262.527344 291.25 261.65625 290.890625 260.910156 290.175781 C 260.191406 289.457031 259.835938 288.597656 259.835938 287.59375 C 259.835938 286.5625 260.191406 285.671875 260.910156 284.925781 C 261.65625 284.210938 262.527344 283.851562 263.53125 283.851562 L 265.554688 283.851562 L 265.8125 279.421875 C 265.898438 278.074219 266.429688 276.929688 267.402344 275.984375 C 268.378906 275.066406 269.554688 274.605469 270.929688 274.605469 C 272.332031 274.605469 273.539062 275.109375 274.542969 276.113281 C 275.542969 277.117188 276.046875 278.320312 276.046875 279.722656 L 276.046875 283.851562 L 279.574219 283.851562 C 280.574219 283.851562 281.449219 284.210938 282.195312 284.925781 C 282.914062 285.671875 283.269531 286.546875 283.269531 287.550781 C 283.269531 288.582031 282.914062 289.457031 282.195312 290.175781 C 281.449219 290.890625 280.574219 291.25 279.574219 291.25 L 276.261719 291.25 L 276.261719 304.707031 C 276.261719 306.34375 276.621094 307.503906 277.335938 308.191406 C 278.023438 308.878906 279.097656 309.222656 280.5625 309.222656 C 281.480469 309.425781 282.253906 309.898438 282.882812 310.644531 C 283.542969 311.359375 283.871094 312.21875 283.871094 313.222656 C 283.871094 314.082031 283.644531 314.84375 283.183594 315.503906 C 282.726562 316.160156 282.125 316.648438 281.378906 316.964844 C 279.773438 317.25 277.867188 317.394531 275.660156 317.394531 Z M 307.78125 317.394531 C 305.171875 317.394531 303.136719 316.980469 301.675781 316.148438 C 300.183594 315.34375 298.9375 314.339844 297.933594 313.136719 C 297.707031 314.285156 297.101562 315.246094 296.128906 316.019531 C 295.125 316.765625 294.007812 317.136719 292.773438 317.136719 C 291.371094 317.136719 290.164062 316.636719 289.164062 315.632812 C 288.160156 314.628906 287.65625 313.425781 287.65625 312.019531 L 287.65625 274.949219 C 287.65625 273.429688 288.214844 272.113281 289.335938 270.996094 C 290.421875 269.90625 291.726562 269.359375 293.246094 269.359375 C 294.765625 269.359375 296.085938 269.90625 297.203125 270.996094 C 298.292969 272.113281 298.835938 273.429688 298.835938 274.949219 L 298.835938 288.539062 C 300.816406 284.984375 303.996094 283.207031 308.382812 283.207031 C 311.335938 283.207031 313.832031 283.9375 315.867188 285.402344 C 317.902344 286.863281 319.421875 288.828125 320.425781 291.292969 C 321.429688 293.757812 321.929688 296.539062 321.929688 299.632812 C 321.929688 303.246094 321.300781 306.398438 320.039062 309.09375 C 318.804688 311.789062 317.113281 313.839844 314.964844 315.246094 C 312.8125 316.679688 310.417969 317.394531 307.78125 317.394531 Z M 304.558594 309.867188 C 306.335938 309.867188 307.796875 309.066406 308.941406 307.460938 C 310.089844 305.855469 310.664062 303.449219 310.664062 300.238281 C 310.664062 297.054688 310.105469 294.730469 308.988281 293.269531 C 307.839844 291.78125 306.40625 291.035156 304.6875 291.035156 C 302.792969 291.035156 301.304688 291.792969 300.214844 293.3125 C 299.097656 294.832031 298.535156 297.140625 298.535156 300.238281 C 298.535156 303.621094 299.097656 306.070312 300.214844 307.589844 C 301.304688 309.109375 302.75 309.867188 304.558594 309.867188 Z M 337.152344 317.4375 C 333.054688 317.4375 330.101562 316.289062 328.292969 313.996094 C 326.488281 311.675781 325.585938 308.578125 325.585938 304.707031 L 325.585938 288.96875 C 325.585938 287.449219 326.144531 286.132812 327.261719 285.011719 C 328.351562 283.925781 329.65625 283.378906 331.175781 283.378906 C 332.695312 283.378906 334.015625 283.925781 335.132812 285.011719 C 336.222656 286.132812 336.765625 287.449219 336.765625 288.96875 L 336.765625 302.945312 C 336.765625 305.183594 337.226562 306.757812 338.140625 307.675781 C 339.03125 308.566406 340.0625 309.007812 341.238281 309.007812 C 342.816406 309.007812 344.0625 308.394531 344.980469 307.160156 C 345.898438 305.925781 346.355469 304.121094 346.355469 301.742188 L 346.355469 288.96875 C 346.355469 287.449219 346.914062 286.132812 348.03125 285.011719 C 349.121094 283.925781 350.425781 283.378906 351.945312 283.378906 C 353.464844 283.378906 354.785156 283.925781 355.902344 285.011719 C 356.992188 286.132812 357.535156 287.449219 357.535156 288.96875 L 357.535156 311.976562 C 357.535156 313.382812 357.035156 314.597656 356.03125 315.632812 C 355 316.636719 353.765625 317.136719 352.332031 317.136719 C 350.929688 317.136719 349.710938 316.636719 348.675781 315.632812 C 347.644531 314.597656 347.128906 313.382812 347.128906 311.976562 L 347.128906 310.730469 C 346.210938 312.734375 344.9375 314.355469 343.300781 315.589844 C 341.695312 316.820312 339.648438 317.4375 337.152344 317.4375 Z M 375.8125 317.394531 C 373.144531 317.394531 370.738281 316.679688 368.589844 315.246094 C 366.4375 313.839844 364.746094 311.789062 363.511719 309.09375 C 362.28125 306.398438 361.664062 303.246094 361.664062 299.632812 C 361.664062 296.539062 362.167969 293.757812 363.167969 291.292969 C 364.171875 288.828125 365.679688 286.863281 367.683594 285.402344 C 369.71875 283.9375 372.230469 283.207031 375.210938 283.207031 C 379.566406 283.207031 382.734375 284.984375 384.714844 288.539062 L 384.714844 274.949219 C 384.714844 273.429688 385.257812 272.113281 386.347656 270.996094 C 387.464844 269.90625 388.785156 269.359375 390.304688 269.359375 C 391.824219 269.359375 393.140625 269.90625 394.261719 270.996094 C 395.351562 272.113281 395.894531 273.429688 395.894531 274.949219 L 395.894531 312.019531 C 395.894531 313.425781 395.394531 314.628906 394.390625 315.632812 C 393.386719 316.636719 392.183594 317.136719 390.777344 317.136719 C 389.542969 317.136719 388.425781 316.765625 387.421875 316.019531 C 386.449219 315.246094 385.847656 314.285156 385.617188 313.136719 C 384.613281 314.339844 383.378906 315.34375 381.917969 316.148438 C 380.457031 316.980469 378.421875 317.394531 375.8125 317.394531 Z M 378.996094 309.867188 C 380.800781 309.867188 382.25 309.109375 383.335938 307.589844 C 384.457031 306.070312 385.015625 303.621094 385.015625 300.238281 C 385.015625 297.140625 384.457031 294.832031 383.335938 293.3125 C 382.25 291.792969 380.757812 291.035156 378.867188 291.035156 C 377.144531 291.035156 375.726562 291.78125 374.609375 293.269531 C 373.460938 294.730469 372.886719 297.054688 372.886719 300.238281 C 372.886719 303.449219 373.460938 305.855469 374.609375 307.460938 C 375.753906 309.066406 377.21875 309.867188 378.996094 309.867188 Z M 414.429688 317.394531 C 411.792969 317.394531 409.398438 316.679688 407.246094 315.246094 C 405.097656 313.839844 403.40625 311.789062 402.171875 309.09375 C 400.910156 306.398438 400.28125 303.246094 400.28125 299.632812 C 400.28125 296.539062 400.78125 293.757812 401.785156 291.292969 C 402.789062 288.828125 404.308594 286.863281 406.34375 285.402344 C 408.378906 283.9375 410.875 283.207031 413.828125 283.207031 C 418.214844 283.207031 421.394531 284.984375 423.375 288.539062 L 423.375 274.949219 C 423.375 273.429688 423.917969 272.113281 425.007812 270.996094 C 426.125 269.90625 427.445312 269.359375 428.964844 269.359375 C 430.484375 269.359375 431.789062 269.90625 432.875 270.996094 C 433.996094 272.113281 434.554688 273.429688 434.554688 274.949219 L 434.554688 312.019531 C 434.554688 313.425781 434.050781 314.628906 433.046875 315.632812 C 432.046875 316.636719 430.839844 317.136719 429.4375 317.136719 C 428.203125 317.136719 427.085938 316.765625 426.082031 316.019531 C 425.109375 315.246094 424.503906 314.285156 424.277344 313.136719 C 423.273438 314.339844 422.039062 315.34375 420.578125 316.148438 C 419.085938 316.980469 417.039062 317.394531 414.429688 317.394531 Z M 417.652344 309.867188 C 419.460938 309.867188 420.90625 309.109375 421.996094 307.589844 C 423.113281 306.070312 423.675781 303.621094 423.675781 300.238281 C 423.675781 297.140625 423.113281 294.832031 421.996094 293.3125 C 420.90625 291.792969 419.417969 291.035156 417.523438 291.035156 C 415.804688 291.035156 414.371094 291.78125 413.222656 293.269531 C 412.105469 294.730469 411.546875 297.054688 411.546875 300.238281 C 411.546875 303.449219 412.121094 305.855469 413.269531 307.460938 C 414.414062 309.066406 415.875 309.867188 417.652344 309.867188 Z M 444.660156 279.207031 C 443.371094 279.207031 442.265625 278.75 441.347656 277.832031 C 440.429688 276.914062 439.972656 275.8125 439.972656 274.519531 C 439.972656 273.230469 440.429688 272.128906 441.347656 271.210938 C 442.265625 270.292969 443.371094 269.832031 444.660156 269.832031 L 447.453125 269.832031 C 448.714844 269.832031 449.820312 270.292969 450.765625 271.210938 C 451.683594 272.128906 452.140625 273.230469 452.140625 274.519531 C 452.140625 275.8125 451.683594 276.914062 450.765625 277.832031 C 449.820312 278.75 448.714844 279.207031 447.453125 279.207031 Z M 446.035156 317.136719 C 444.515625 317.136719 443.210938 316.59375 442.121094 315.503906 C 441.003906 314.382812 440.445312 313.066406 440.445312 311.546875 L 440.445312 288.96875 C 440.445312 287.449219 441.003906 286.132812 442.121094 285.011719 C 443.210938 283.925781 444.515625 283.378906 446.035156 283.378906 C 447.582031 283.378906 448.902344 283.925781 449.992188 285.011719 C 451.109375 286.132812 451.667969 287.449219 451.667969 288.96875 L 451.667969 311.546875 C 451.667969 313.066406 451.109375 314.382812 449.992188 315.503906 C 448.902344 316.59375 447.582031 317.136719 446.035156 317.136719 Z M 472.78125 317.566406 C 469.484375 317.566406 466.535156 316.863281 463.925781 315.460938 C 461.316406 314.054688 459.265625 312.046875 457.773438 309.4375 C 456.3125 306.832031 455.582031 303.804688 455.582031 300.367188 C 455.582031 297.039062 456.269531 294.058594 457.644531 291.421875 C 459.023438 288.785156 461 286.71875 463.582031 285.230469 C 466.132812 283.765625 469.113281 283.035156 472.523438 283.035156 C 475.992188 283.035156 478.976562 283.765625 481.46875 285.230469 C 483.933594 286.691406 485.796875 288.597656 487.058594 290.949219 C 488.351562 293.328125 488.996094 295.808594 488.996094 298.386719 C 488.996094 300.023438 488.609375 301.238281 487.835938 302.042969 C 487.058594 302.84375 485.796875 303.246094 484.050781 303.246094 L 466.289062 303.246094 C 466.492188 305.226562 467.191406 306.789062 468.398438 307.933594 C 469.601562 309.109375 471.148438 309.695312 473.042969 309.695312 C 474.160156 309.695312 475.089844 309.511719 475.835938 309.136719 C 476.609375 308.738281 477.296875 308.234375 477.902344 307.632812 C 478.472656 307.117188 478.988281 306.730469 479.449219 306.472656 C 479.90625 306.214844 480.480469 306.085938 481.167969 306.085938 C 482.402344 306.085938 483.460938 306.527344 484.351562 307.417969 C 485.238281 308.335938 485.683594 309.4375 485.683594 310.730469 C 485.683594 312.132812 485.082031 313.339844 483.878906 314.339844 C 482.789062 315.257812 481.242188 316.03125 479.234375 316.664062 C 477.226562 317.265625 475.078125 317.566406 472.78125 317.566406 Z M 466.332031 296.667969 L 478.203125 296.667969 C 478.117188 294.746094 477.542969 293.226562 476.480469 292.109375 C 475.421875 290.992188 474.042969 290.433594 472.351562 290.433594 C 470.660156 290.433594 469.285156 290.992188 468.226562 292.109375 C 467.164062 293.226562 466.535156 294.746094 466.332031 296.667969 Z M 504.390625 317.695312 C 500.777344 317.695312 497.710938 317.179688 495.1875 316.148438 C 492.695312 315.085938 491.445312 313.410156 491.445312 311.117188 C 491.445312 309.796875 491.890625 308.652344 492.78125 307.675781 C 493.667969 306.703125 494.816406 306.214844 496.21875 306.214844 C 497.023438 306.214844 497.695312 306.386719 498.242188 306.730469 C 498.8125 307.046875 499.375 307.53125 499.917969 308.191406 C 500.519531 308.9375 501.121094 309.480469 501.722656 309.824219 C 502.324219 310.140625 503.300781 310.300781 504.648438 310.300781 C 507.714844 310.300781 509.25 309.339844 509.25 307.417969 C 509.25 306.757812 509.019531 306.226562 508.5625 305.828125 C 508.101562 305.425781 507.171875 305.082031 505.765625 304.792969 L 501.679688 303.976562 C 497.898438 303.203125 495.128906 302.058594 493.382812 300.539062 C 491.605469 299.019531 490.714844 296.925781 490.714844 294.257812 C 490.714844 290.820312 492.078125 288.082031 494.800781 286.046875 C 497.496094 284.039062 501.09375 283.035156 505.59375 283.035156 C 508.890625 283.035156 511.757812 283.550781 514.195312 284.582031 C 516.660156 285.617188 517.894531 287.222656 517.894531 289.398438 C 517.894531 290.832031 517.449219 291.996094 516.558594 292.882812 C 515.699219 293.742188 514.640625 294.171875 513.378906 294.171875 C 511.914062 294.171875 510.667969 293.5 509.636719 292.152344 C 509.234375 291.605469 508.734375 291.175781 508.132812 290.863281 C 507.527344 290.519531 506.625 290.347656 505.421875 290.347656 C 504.132812 290.347656 503.113281 290.574219 502.367188 291.035156 C 501.625 291.464844 501.25 292.109375 501.25 292.96875 C 501.25 293.628906 501.539062 294.144531 502.109375 294.515625 C 502.65625 294.890625 503.617188 295.207031 504.992188 295.464844 L 509.679688 296.453125 C 513.292969 297.199219 515.914062 298.34375 517.550781 299.890625 C 519.183594 301.410156 520 303.519531 520 306.214844 C 520 309.738281 518.695312 312.535156 516.085938 314.597656 C 513.507812 316.664062 509.609375 317.695312 504.390625 317.695312 Z M 504.390625 317.695312 "/>
<path style=" stroke:none;fill-rule:nonzero;fill:url(#linear0);" d="M 110.011719 298.65625 C 118.933594 298.296875 125.890625 290.789062 125.570312 281.863281 C 125.890625 272.933594 118.933594 265.429688 110.011719 265.070312 C 101.085938 265.429688 94.128906 272.9375 94.449219 281.863281 C 94.128906 290.789062 101.085938 298.296875 110.011719 298.65625 Z M 110.011719 271.984375 C 115.109375 272.355469 118.964844 276.757812 118.65625 281.863281 C 118.964844 286.964844 115.109375 291.367188 110.011719 291.738281 C 104.910156 291.367188 101.054688 286.964844 101.363281 281.863281 C 101.058594 276.761719 104.914062 272.363281 110.011719 271.992188 Z M 148.660156 287.625 C 157.582031 287.265625 164.539062 279.761719 164.21875 270.832031 C 164.539062 261.90625 157.582031 254.402344 148.660156 254.039062 C 139.734375 254.402344 132.777344 261.90625 133.097656 270.832031 C 132.777344 279.761719 139.734375 287.265625 148.660156 287.625 Z M 148.660156 260.957031 C 153.757812 261.328125 157.613281 265.730469 157.304688 270.832031 C 157.613281 275.9375 153.757812 280.339844 148.660156 280.710938 C 143.558594 280.339844 139.703125 275.9375 140.011719 270.832031 C 139.703125 265.730469 143.558594 261.328125 148.660156 260.957031 Z M 160.296875 322.554688 C 162.203125 322.554688 163.753906 321.007812 163.753906 319.097656 C 163.753906 317.1875 162.203125 315.636719 160.296875 315.636719 L 136.46875 315.636719 C 134.515625 312.351562 131.695312 309.664062 128.316406 307.871094 C 131.6875 302.503906 138.371094 299.863281 148.660156 299.863281 C 159.695312 299.863281 166.578125 302.855469 169.703125 309.007812 C 170.566406 310.71875 172.652344 311.402344 174.359375 310.539062 C 176.070312 309.675781 176.753906 307.589844 175.890625 305.882812 C 171.535156 297.304688 162.378906 292.957031 148.683594 292.957031 C 135.226562 292.957031 126.234375 297.144531 121.820312 305.351562 C 117.957031 304.402344 113.992188 303.945312 110.015625 303.996094 C 85.207031 303.996094 80 318.210938 80 330.132812 C 80 332.042969 81.546875 333.59375 83.457031 333.59375 L 136.574219 333.59375 C 138.484375 333.59375 140.035156 332.042969 140.035156 330.132812 C 140.042969 327.585938 139.765625 325.046875 139.207031 322.5625 Z M 87.078125 326.667969 C 87.890625 319.113281 92.101562 310.90625 110.011719 310.90625 C 127.917969 310.90625 132.140625 319.113281 132.9375 326.667969 Z M 179.113281 322.789062 L 162.820312 344.574219 C 162.175781 345.433594 161.171875 345.945312 160.101562 345.960938 L 160.050781 345.960938 C 158.996094 345.957031 158 345.480469 157.34375 344.65625 L 148.308594 333.320312 C 147.121094 331.824219 147.367188 329.648438 148.859375 328.457031 C 150.355469 327.269531 152.53125 327.515625 153.722656 329.011719 L 159.945312 336.839844 L 173.558594 318.640625 C 174.703125 317.113281 176.871094 316.800781 178.398438 317.949219 C 179.925781 319.09375 180.234375 321.261719 179.089844 322.789062 Z M 179.113281 322.789062 "/>
</g>
</svg>
